<mxfile host="app.diagrams.net" modified="2022-11-17T08:15:19.141Z" agent="5.0 (Windows NT 10.0; Win64; x64) AppleWebKit/537.36 (KHTML, like Gecko) Chrome/107.0.0.0 Safari/537.36" etag="sXT5zTu-U7QBl6lvpw-Z" version="20.5.3" type="github">
  <diagram id="f-axBG_b61KFuieNPzLh" name="第 1 页">
    <mxGraphModel dx="563" dy="367" grid="0" gridSize="10" guides="1" tooltips="1" connect="1" arrows="1" fold="1" page="1" pageScale="1" pageWidth="827" pageHeight="1169" math="0" shadow="0">
      <root>
        <mxCell id="0" />
        <mxCell id="1" parent="0" />
        <mxCell id="Oh8rXPz_JuUDXjp5ri5R-5" value="&lt;font face=&quot;宋体&quot; style=&quot;font-size: 16px;&quot;&gt;系统建模&lt;/font&gt;" style="shape=step;perimeter=stepPerimeter;whiteSpace=wrap;html=1;fixedSize=1;fillColor=#ffe6cc;strokeColor=#d79b00;fontSize=16;fontStyle=1" parent="1" vertex="1">
          <mxGeometry x="211" y="243" width="180" height="60" as="geometry" />
        </mxCell>
        <mxCell id="Oh8rXPz_JuUDXjp5ri5R-6" value="&lt;font face=&quot;宋体&quot; style=&quot;font-size: 16px;&quot;&gt;特征选择/降维&lt;/font&gt;" style="shape=step;perimeter=stepPerimeter;whiteSpace=wrap;html=1;fixedSize=1;fillColor=#d5e8d4;strokeColor=#82b366;fontSize=16;fontStyle=1" parent="1" vertex="1">
          <mxGeometry x="401" y="243" width="180" height="60" as="geometry" />
        </mxCell>
        <mxCell id="Oh8rXPz_JuUDXjp5ri5R-7" value="&lt;font face=&quot;宋体&quot; style=&quot;font-size: 16px;&quot;&gt;故障诊断&lt;/font&gt;" style="shape=step;perimeter=stepPerimeter;whiteSpace=wrap;html=1;fixedSize=1;fillColor=#f8cecc;strokeColor=#b85450;fontSize=16;fontStyle=1" parent="1" vertex="1">
          <mxGeometry x="591" y="243" width="180" height="60" as="geometry" />
        </mxCell>
        <mxCell id="Oh8rXPz_JuUDXjp5ri5R-11" value="" style="swimlane;startSize=0;fontSize=18;fillColor=#ffe6cc;strokeColor=#d79b00;" parent="1" vertex="1">
          <mxGeometry x="211" y="333" width="160" height="212" as="geometry" />
        </mxCell>
        <mxCell id="Oh8rXPz_JuUDXjp5ri5R-16" value="&lt;span style=&quot;font-family: 宋体;&quot;&gt;• 故障树&lt;/span&gt;" style="text;strokeColor=none;fillColor=none;align=left;verticalAlign=middle;spacingLeft=4;spacingRight=4;overflow=hidden;points=[[0,0.5],[1,0.5]];portConstraint=eastwest;rotatable=0;whiteSpace=wrap;html=1;fontSize=14;dashed=1;" parent="Oh8rXPz_JuUDXjp5ri5R-11" vertex="1">
          <mxGeometry y="90" width="160" height="30" as="geometry" />
        </mxCell>
        <mxCell id="Oh8rXPz_JuUDXjp5ri5R-66" value="&lt;span style=&quot;letter-spacing: 1px;&quot;&gt;&lt;font face=&quot;宋体&quot;&gt;按照给定的系统信息，建立相关数学模型，作为故障诊断的依据&lt;/font&gt;&lt;/span&gt;" style="text;strokeColor=none;fillColor=#ffe6cc;align=left;verticalAlign=middle;spacingLeft=4;spacingRight=4;overflow=hidden;points=[[0,0.5],[1,0.5]];portConstraint=eastwest;rotatable=0;fontSize=14;dashed=1;whiteSpace=wrap;html=1;" parent="Oh8rXPz_JuUDXjp5ri5R-11" vertex="1">
          <mxGeometry width="160" height="60" as="geometry" />
        </mxCell>
        <mxCell id="80iJt4s4y_4UKkS6HkKz-1" value="&lt;font face=&quot;宋体&quot; style=&quot;font-size: 14px;&quot;&gt;• 符号有向图&lt;/font&gt;" style="text;strokeColor=none;fillColor=none;align=left;verticalAlign=middle;spacingLeft=4;spacingRight=4;overflow=hidden;points=[[0,0.5],[1,0.5]];portConstraint=eastwest;rotatable=0;whiteSpace=wrap;html=1;fontSize=14;dashed=1;" parent="Oh8rXPz_JuUDXjp5ri5R-11" vertex="1">
          <mxGeometry y="60" width="160" height="30" as="geometry" />
        </mxCell>
        <mxCell id="80iJt4s4y_4UKkS6HkKz-2" value="&lt;span style=&quot;font-family: 宋体;&quot;&gt;• Petri网&lt;/span&gt;" style="text;strokeColor=none;fillColor=none;align=left;verticalAlign=middle;spacingLeft=4;spacingRight=4;overflow=hidden;points=[[0,0.5],[1,0.5]];portConstraint=eastwest;rotatable=0;whiteSpace=wrap;html=1;fontSize=14;dashed=1;" parent="Oh8rXPz_JuUDXjp5ri5R-11" vertex="1">
          <mxGeometry y="120" width="160" height="30" as="geometry" />
        </mxCell>
        <mxCell id="80iJt4s4y_4UKkS6HkKz-3" value="&lt;span style=&quot;font-family: 宋体;&quot;&gt;• 键合图&lt;/span&gt;" style="text;strokeColor=none;fillColor=none;align=left;verticalAlign=middle;spacingLeft=4;spacingRight=4;overflow=hidden;points=[[0,0.5],[1,0.5]];portConstraint=eastwest;rotatable=0;whiteSpace=wrap;html=1;fontSize=14;dashed=1;" parent="Oh8rXPz_JuUDXjp5ri5R-11" vertex="1">
          <mxGeometry y="150" width="160" height="30" as="geometry" />
        </mxCell>
        <mxCell id="80iJt4s4y_4UKkS6HkKz-4" value="&lt;font face=&quot;宋体&quot;&gt;•&amp;nbsp;......&lt;/font&gt;" style="text;strokeColor=none;fillColor=none;align=left;verticalAlign=middle;spacingLeft=4;spacingRight=4;overflow=hidden;points=[[0,0.5],[1,0.5]];portConstraint=eastwest;rotatable=0;whiteSpace=wrap;html=1;fontSize=14;dashed=1;" parent="Oh8rXPz_JuUDXjp5ri5R-11" vertex="1">
          <mxGeometry y="180" width="160" height="30" as="geometry" />
        </mxCell>
        <mxCell id="Oh8rXPz_JuUDXjp5ri5R-51" value="" style="swimlane;startSize=0;fontSize=18;fillColor=#d5e8d4;strokeColor=#82b366;" parent="1" vertex="1">
          <mxGeometry x="402" y="333" width="160" height="210" as="geometry" />
        </mxCell>
        <mxCell id="Oh8rXPz_JuUDXjp5ri5R-52" value="&lt;span style=&quot;font-size: 14px; font-family: 宋体; letter-spacing: 0.75pt;&quot;&gt;将大量历史过程数据通过统计方法投射到低维空间，提取重要特征&lt;/span&gt;" style="text;strokeColor=none;fillColor=#d5e8d4;align=left;verticalAlign=middle;spacingLeft=4;spacingRight=4;overflow=hidden;points=[[0,0.5],[1,0.5]];portConstraint=eastwest;rotatable=0;fontSize=14;dashed=1;whiteSpace=wrap;html=1;" parent="Oh8rXPz_JuUDXjp5ri5R-51" vertex="1">
          <mxGeometry width="160" height="60" as="geometry" />
        </mxCell>
        <mxCell id="Oh8rXPz_JuUDXjp5ri5R-53" value="&lt;font face=&quot;宋体&quot; style=&quot;font-size: 14px;&quot;&gt;• 灰色理论&lt;/font&gt;" style="text;strokeColor=none;fillColor=none;align=left;verticalAlign=middle;spacingLeft=4;spacingRight=4;overflow=hidden;points=[[0,0.5],[1,0.5]];portConstraint=eastwest;rotatable=0;whiteSpace=wrap;html=1;fontSize=14;dashed=1;" parent="Oh8rXPz_JuUDXjp5ri5R-51" vertex="1">
          <mxGeometry y="60" width="160" height="30" as="geometry" />
        </mxCell>
        <mxCell id="Oh8rXPz_JuUDXjp5ri5R-54" value="&lt;font face=&quot;宋体&quot;&gt;• 时间序列分析&lt;/font&gt;" style="text;strokeColor=none;fillColor=none;align=left;verticalAlign=middle;spacingLeft=4;spacingRight=4;overflow=hidden;points=[[0,0.5],[1,0.5]];portConstraint=eastwest;rotatable=0;whiteSpace=wrap;html=1;fontSize=14;dashed=1;" parent="Oh8rXPz_JuUDXjp5ri5R-51" vertex="1">
          <mxGeometry y="90" width="160" height="30" as="geometry" />
        </mxCell>
        <mxCell id="Oh8rXPz_JuUDXjp5ri5R-55" value="&lt;font face=&quot;宋体&quot;&gt;• 多元统计分析&lt;/font&gt;" style="text;strokeColor=none;fillColor=none;align=left;verticalAlign=middle;spacingLeft=4;spacingRight=4;overflow=hidden;points=[[0,0.5],[1,0.5]];portConstraint=eastwest;rotatable=0;whiteSpace=wrap;html=1;fontSize=14;dashed=1;" parent="Oh8rXPz_JuUDXjp5ri5R-51" vertex="1">
          <mxGeometry y="120" width="160" height="30" as="geometry" />
        </mxCell>
        <mxCell id="Oh8rXPz_JuUDXjp5ri5R-57" value="&lt;font face=&quot;宋体&quot;&gt;•&amp;nbsp;......&lt;/font&gt;" style="text;strokeColor=none;fillColor=none;align=left;verticalAlign=middle;spacingLeft=4;spacingRight=4;overflow=hidden;points=[[0,0.5],[1,0.5]];portConstraint=eastwest;rotatable=0;whiteSpace=wrap;html=1;fontSize=14;dashed=1;" parent="Oh8rXPz_JuUDXjp5ri5R-51" vertex="1">
          <mxGeometry y="150" width="160" height="30" as="geometry" />
        </mxCell>
        <mxCell id="Oh8rXPz_JuUDXjp5ri5R-58" value="" style="swimlane;startSize=0;fontSize=18;fillColor=#f8cecc;strokeColor=#b85450;" parent="1" vertex="1">
          <mxGeometry x="593" y="333" width="160" height="212" as="geometry" />
        </mxCell>
        <mxCell id="Oh8rXPz_JuUDXjp5ri5R-60" value="&lt;font face=&quot;宋体&quot; style=&quot;font-size: 14px;&quot;&gt;• 支持向量机&lt;/font&gt;" style="text;strokeColor=none;fillColor=none;align=left;verticalAlign=middle;spacingLeft=4;spacingRight=4;overflow=hidden;points=[[0,0.5],[1,0.5]];portConstraint=eastwest;rotatable=0;whiteSpace=wrap;html=1;fontSize=14;dashed=1;" parent="Oh8rXPz_JuUDXjp5ri5R-58" vertex="1">
          <mxGeometry y="60" width="160" height="30" as="geometry" />
        </mxCell>
        <mxCell id="Oh8rXPz_JuUDXjp5ri5R-61" value="&lt;font face=&quot;宋体&quot;&gt;• 决策树&lt;/font&gt;" style="text;strokeColor=none;fillColor=none;align=left;verticalAlign=middle;spacingLeft=4;spacingRight=4;overflow=hidden;points=[[0,0.5],[1,0.5]];portConstraint=eastwest;rotatable=0;whiteSpace=wrap;html=1;fontSize=14;dashed=1;" parent="Oh8rXPz_JuUDXjp5ri5R-58" vertex="1">
          <mxGeometry y="90" width="160" height="30" as="geometry" />
        </mxCell>
        <mxCell id="Oh8rXPz_JuUDXjp5ri5R-62" value="&lt;font face=&quot;宋体&quot;&gt;• 神经网络&lt;/font&gt;" style="text;strokeColor=none;fillColor=none;align=left;verticalAlign=middle;spacingLeft=4;spacingRight=4;overflow=hidden;points=[[0,0.5],[1,0.5]];portConstraint=eastwest;rotatable=0;whiteSpace=wrap;html=1;fontSize=14;dashed=1;" parent="Oh8rXPz_JuUDXjp5ri5R-58" vertex="1">
          <mxGeometry y="120" width="160" height="30" as="geometry" />
        </mxCell>
        <mxCell id="Oh8rXPz_JuUDXjp5ri5R-63" value="&lt;font face=&quot;宋体&quot;&gt;• 深度学习&lt;/font&gt;" style="text;strokeColor=none;fillColor=none;align=left;verticalAlign=middle;spacingLeft=4;spacingRight=4;overflow=hidden;points=[[0,0.5],[1,0.5]];portConstraint=eastwest;rotatable=0;whiteSpace=wrap;html=1;fontSize=14;dashed=1;" parent="Oh8rXPz_JuUDXjp5ri5R-58" vertex="1">
          <mxGeometry y="150" width="160" height="30" as="geometry" />
        </mxCell>
        <mxCell id="Oh8rXPz_JuUDXjp5ri5R-65" value="&lt;font face=&quot;宋体&quot;&gt;•&amp;nbsp;......&lt;/font&gt;" style="text;strokeColor=none;fillColor=none;align=left;verticalAlign=middle;spacingLeft=4;spacingRight=4;overflow=hidden;points=[[0,0.5],[1,0.5]];portConstraint=eastwest;rotatable=0;whiteSpace=wrap;html=1;fontSize=14;dashed=1;" parent="Oh8rXPz_JuUDXjp5ri5R-58" vertex="1">
          <mxGeometry y="180" width="160" height="30" as="geometry" />
        </mxCell>
        <mxCell id="Oh8rXPz_JuUDXjp5ri5R-68" value="&lt;span style=&quot;font-size: 14px; font-family: 宋体; letter-spacing: 0.75pt;&quot;&gt;从输入数据中学习特征，同时根据学习到的特征识别机器状态&lt;/span&gt;" style="text;strokeColor=none;fillColor=#f8cecc;align=left;verticalAlign=middle;spacingLeft=4;spacingRight=4;overflow=hidden;points=[[0,0.5],[1,0.5]];portConstraint=eastwest;rotatable=0;fontSize=14;dashed=1;whiteSpace=wrap;html=1;" parent="Oh8rXPz_JuUDXjp5ri5R-58" vertex="1">
          <mxGeometry width="160" height="60" as="geometry" />
        </mxCell>
        <mxCell id="6Q1Rw0imLt8EeE4JK44i-1" value="" style="rounded=1;whiteSpace=wrap;html=1;fillColor=#eeeeee;strokeColor=none;" vertex="1" parent="1">
          <mxGeometry x="13" y="585" width="179" height="326" as="geometry" />
        </mxCell>
        <mxCell id="6Q1Rw0imLt8EeE4JK44i-2" value="Raw Data" style="text;html=1;strokeColor=none;fillColor=none;align=center;verticalAlign=middle;whiteSpace=wrap;rounded=0;fontFamily=Times New Roman;fontStyle=1" vertex="1" parent="1">
          <mxGeometry x="71" y="586.25" width="60" height="30" as="geometry" />
        </mxCell>
        <mxCell id="6Q1Rw0imLt8EeE4JK44i-5" value="&lt;font face=&quot;宋体&quot; style=&quot;font-size: 14px;&quot;&gt;• 振动信号&lt;/font&gt;" style="text;strokeColor=none;fillColor=none;align=left;verticalAlign=middle;spacingLeft=4;spacingRight=4;overflow=hidden;points=[[0,0.5],[1,0.5]];portConstraint=eastwest;rotatable=0;whiteSpace=wrap;html=1;fontSize=14;dashed=1;" vertex="1" parent="1">
          <mxGeometry x="21" y="782" width="160" height="30" as="geometry" />
        </mxCell>
        <mxCell id="6Q1Rw0imLt8EeE4JK44i-6" value="&lt;font face=&quot;宋体&quot; style=&quot;font-size: 14px;&quot;&gt;• 电路信号&lt;/font&gt;" style="text;strokeColor=none;fillColor=none;align=left;verticalAlign=middle;spacingLeft=4;spacingRight=4;overflow=hidden;points=[[0,0.5],[1,0.5]];portConstraint=eastwest;rotatable=0;whiteSpace=wrap;html=1;fontSize=14;dashed=1;" vertex="1" parent="1">
          <mxGeometry x="21" y="812" width="160" height="30" as="geometry" />
        </mxCell>
        <mxCell id="6Q1Rw0imLt8EeE4JK44i-7" value="&lt;font face=&quot;宋体&quot; style=&quot;font-size: 14px;&quot;&gt;• 载荷信号&lt;/font&gt;" style="text;strokeColor=none;fillColor=none;align=left;verticalAlign=middle;spacingLeft=4;spacingRight=4;overflow=hidden;points=[[0,0.5],[1,0.5]];portConstraint=eastwest;rotatable=0;whiteSpace=wrap;html=1;fontSize=14;dashed=1;" vertex="1" parent="1">
          <mxGeometry x="21" y="842" width="160" height="30" as="geometry" />
        </mxCell>
        <mxCell id="6Q1Rw0imLt8EeE4JK44i-8" value="&lt;font face=&quot;宋体&quot; style=&quot;font-size: 14px;&quot;&gt;• ......&lt;/font&gt;" style="text;strokeColor=none;fillColor=none;align=left;verticalAlign=middle;spacingLeft=4;spacingRight=4;overflow=hidden;points=[[0,0.5],[1,0.5]];portConstraint=eastwest;rotatable=0;whiteSpace=wrap;html=1;fontSize=14;dashed=1;" vertex="1" parent="1">
          <mxGeometry x="21" y="872" width="160" height="30" as="geometry" />
        </mxCell>
        <mxCell id="6Q1Rw0imLt8EeE4JK44i-47" value="" style="shape=image;verticalLabelPosition=bottom;labelBackgroundColor=default;verticalAlign=top;aspect=fixed;imageAspect=0;image=data:image/png,iVBORw0KGgoAAAANSUhEUgAAAV0AAAE6CAYAAAC1eYFVAAAAAXNSR0IArs4c6QAAAARnQU1BAACxjwv8YQUAAAAJcEhZcwAAFiUAABYlAUlSJPAAAEA0SURBVHhe7Z0HeBRV18cP6b0QQm+hCaFDFKVJLzZAEAHFin4gKvqCoqIiWEBFERvia4HXjoBYQQSkCFJCT0ILLQlJIKT3/s25mcmW7GY3ye5syf/HM09m7uxedvbO/e+Zc889t0G5BAEAAFAFF/kvAAAAFYDoAgCAikB0AQBARSC6AACgIhBdAABQEYguAACoCEQXAABUBKILAAAqAtEFAAAVgegCAICKQHQBAEBFHEZ0MzIy6P777xcb7xsrA46JflsqxwsWLKCCggL5VcCRMdZfjZVrY+h+MFTmCDiE6PKXO2fOHLG/YsUKCgoKEvvaKA3Qt2/fysZTyvSP+TXGNuW1wP4xpz21N7QtsAfsPssYdxJtwWWU40WLFtHChQspKipKHHfr1q2KKGu/X3n9nXfeSePGjatStyExB+pgrJ1btmxJL730krBkzGkrtKn9obSJ0k9NUV0/ZrlKS0ujnj170hNPPEHz588X94iyz9h7u9u1pavdWLwNHz5cbMpxbGyseB030rZt28SXza/Xtmj4y+dyRnk9g85pP5hqC7SVY8PttWbNGtFHua8q/fXQoUNi0y/n12q3sXb7L168mEJCQsS+Qnx8PM2YMcNsUbc1di26SmMpjaPfSOai1BMRESGOU1NTRSNqizkeP+0TpUMxEFygoC200dHR9NRTT9VIE2yJQ0YvKCI6YsSISitW2wpmsrKyhIhWJ6TKL2tNRRxYDsWKMWalcIdiywaC6zxoGzq8afdbfbTvD94mTpwo/moL7ZgxYxyq/9q96PKXzsKpNJCyKWJqyBrm49atW1cKMjeaIeFVGr+6RgfWQ+lQ06dPN9ppuByC61xwm7KhY+rJVf/+4G39+vWV+x06dJBf6Vg4jKXLX7K+VaoIsiLA+seKIHOn5caLjIwU71MwVCdQD6V9FLePgtLZ8EPonCjGjmJAGTN6jN0fjo7DiK4pq1TpqIy5lpGpOoH6KO1YnfULHBvF2DFl6TorDm3pKrBgsq+H0RdcbTFWHkfYR8i/oEpd7BPas2ePKDNHrIF10G5HR310BOqD6AUrUZ1VqgiyuaLJ0QvsglDcDdxokyZNqnRLANtQ03YE9g/3J+5X2m4EpS/ruxe0y2vSF1u1akXr1q2rHM+x93vHKSxdBaWBlQbjTbFylYkR7B/iyRHacKN99tlnYp9fb25jA3XRb19g/7AAshBquxGUvqzvXtAuN0c8lbpff/118vLycpj7w2FE11IkJydXcTcAx0MJCVSspeqsJu0Ngm0b+DtX+p2+C5D3uYypD0aPQ00D1p72y7+K2g3FZQrKOaVhDTW4UsbvY58uTzXlX0ugPsY6pHYbaaPfvsC+Mda++pi6DxguZwzdFwr2fn/YvegCAIAzUe/cCwAAYEsgugAAoCIQXQAAUBGILgAAqAhEFwAAVASiCwAAKmJXIWOR59Lo4ZUH5SMiT3dXOrBkhNgf/PJ2yswrFvvMRzP60sDOjWjRj9G0YX+CXEp0Z7+WtPCurvTPqWs0+7NDcilRoI877Vo8TOzf8PxWKiwuFfvM57Oup4j2DeUjoCZV29xFavORYl+/zT9+pC8NuA5t7ujU934OSxcAAFQEogsAACoC0QUAABWB6AIAgIpAdAEAQEUgugAAoCIQXQAAUBGILgAAqIjrKxLyvmrkFZbQsUsZFHk+nY5dzKDo+CyxHZXKjl/KlF9F1EDagn09xDkOgi4p1czj8Pd2p6T0AjoQm0rJGQVyaUVwfXFJOR0R9WrqcmnQgAKk93Bdu0+mUJnWlJAAH3e6nJpf+TnOXcml7PxiCvJ1J3c3/C5ZglLpC78gfa8nE7LovPT3Ykqe2GKk4wOxafKrpBvSpQF1ahYgzm05nkzFWm3eqpEv5RaU0r6zqZSQmieXEgX5eZCflztFSe19SLqnFNxcXah9E39R159Hk6U219TVJtSXsvJLKj/H5bR86b4pE8H1fK8AyxB3LY9OXs6i2GTjbc7fd6fmRto8xIdyC81vc75/OjQ1r82TMwuEDnCbq4mqM9L4y//v1vNC9IqkG7wq/FHs54b3kAR3UJdQmjE8jMJbBsqloCawmH2x/TxtOXZFuuE1M4002Feb8w/z6F5N6aFh7ah5MFYSqQ1sBP1v50XafDSJUrOL5FJt7KvNQ/w9aYzU5vfd3JaaBlm/zVURXf4v3t90Vup8F+QSYxhvDBZAw0KtDg8NC6Mnx3YiGEHms0bqeB9tPkuFxdW1m311QAV+Ypo9piPdL3VEYD5f7bok2jy/SDP9tir22ebeHq702OgOQnytidVFl6t/4bso+uNwolxSHVUbI8Tfg+bc0okGh4fSxGV7jPxyqsPY3s1oybQeEF4zWPbrafpKEl3T2GcHVJgudcB5t18nH4HqcJY2v3dwG3rmjs7ykeWxuk+XLdy1e+PlI3PQNAb7Z36ZP4j6tAsWv0JNJNN/6/Er8ln1iU3OoQLJarupU4hcAgzB7oRPt56Xj8zBeh0wvGWA8OU1b+gttsaBnjpjAKY4fimDvNxdqXdYsFwCDGFPbV5XeFzJw9VF6I41sKqlyz7cKcv/lY/Moeov4OwxHejREe3lI6JZ/z1Ee09fk49sw9dP3kjdW8PHa4hLKXk08Z09YlDKPKxr9XDGMnYVaDP0lb8pLcf8JyYeTF0/t78Qb1AVe2tzS+AmGXxrpTZv38RPLrEcVh2a50GzmlG1Ib7fE6eTnu2lieHCv2tLVv11Tt4D+ny69VwNOh9j3c7n5lq1fnfJiqkJfD01s+LqF/bW5pagpKycVv5pnX5uNfXisDCOUqgr7MP9/XCSfETiEXHWKI3lawvY0uaQMqBLodTxtp2wnfvHEOyi0seQEJuCr4uvD+hij21uKXbGXKXcghL5yHJYTXQ5Fs9S0QY8Cq7NfTeHUYemljf7zYVjTk/EZclHQIFjcKsftVYXFwOCy9RGdPm6+PqALvbW5paE9Us71t9SWE10E9PNH6wwxcWrubQ96qp8VNFpOGu8LUnOyJf3gIJ28Hp1tAn1IT8vN/nIerBfzhCGrF9zMPf66hPO/p0k1mDQ1VysJrpZeYXynmX4ZreutdujTRDddVMr+Uh9cgvgXtAnM8/04FS7Jr4iImXry0No8d3dpHa03oCkMW11c6ndbW/O9dU3nP07ybbC9VlNdAuLLCtKkefSRfiONnNu6Sim6toCS1+fM1BQaPoGbejnKf5yCOC461vQV0/cKCIDpg1sTQHelrV+XY0MmLnXwr3AmHN99Q1n/06s0c+tJrolpZYfdPjib90ZbZx/4VkrBjFXR2kZBlX0qW2bd2jmT/PHdxHW7+tTu1NfC8VHGnMvcE6G2mCNe9rRcfbvxBr9vFZxuryapyl+PRhHGyOT5SNTmG95/PbcIGrVyEc+quCBD/eLBDeWx/hXMz6iKd1+fWv5yDjOsuIsJy4xxfe7z9M3ezQrthqCv4/PZ90gHxmH/fjr9yfQr5GXKT23dtZGQz8P+vuVofKRhgc/OkCHL2iSpOhivM3vGdCSpgxqJx8Zp7Xe/emomN/PzYlesP/YXEOMj2hi8X5eK9HtOe9Pec8S1Kwx7ohoTq9O6S4fVcAzxSa/u1dEFViWut8ox5aNlvccG0u1eYXoXi8fmYbjP3kQlQX4wNnUaiSxKo0CPGmbZD3r88gnB3WyXOmCNlewZT9XF3Xb3GruBWux+WgyXcvWHaTj8LE7IlrIR8CZ4NlgnPXr0/+LoN+eH0QPDwujRv4VfmFTGHcv2GvnB/UBh7N0mXsGtaFnx+n6clmIx76+y8KZyGD1KNjK0jUE+xF3xqTQBsn63XP6Ghm7g1s09KY/XhgsH2l44vPDtMvoxB20uYJa/bxPWDCN6tmEvDxc5ZK6wzrAg+9bjpnj4lS3zWslujc8v1XeM06p1DF4Kp1pan7BPA1404LBVSyePw4n0Xu/n6ErmZaKrTP+2diKMjY6rs2BJSPkPcfGnkRXm+T0fNpw4DJtPHiZrujFVLLvn8cA9Hl69RGduG9d1O2A9owa/XxYt8a0/IHe8pHlWfRjtPhxrh51+3mtRNccPv3zNH30lzlp3mrHnf1aGpwgwdOPeZ58quyC4EGY/KISqUMWUnZBMWXUclBGn9kj29Kjo+tPyr/MPNPf25rtsfT5jjj5yDCWFl0F9uez1bthX4KwYvk4rLEvbXx2oPwKDc98dVQkVa8pDw9pTfcP6yAfGUftlQhsSV37+Vv39qDRvZrJR0Q5BSV0Ii5DrArTLNiLurcOqtNEmsPn0+nBjw/IRzXHGv3cYUWXZxXtXDRUhI3xNMSUrEIKDfAU8Z+mYIsoPbdICDBbxSzQLM4ZUlmiZDnlFZZS/LU8SaSNz7uub6JrDua0eUT7YLOiF+pCSlYBbTyQSMelzvvBQ33kUg3PfXOcNh3R5PMwF7R5Verazz+e0ZcGdG4k9o9cSKeFP0TRJa1ImbahvrTo7q7Uq23twgjPJmXTpHf2ykc1x25Ed/DL2+U943BmMM49axrjpn11NAn0pC0vVYxM//hvPL22PoZenBhusVlqK7fE0ifSZuyzebm7kKe7aYHftXiYvOfYmHPjpuUUmkwyby1Ltya8+P0J+jXSWFJ94/cjJ9RXJndUx7q5/eU9x0aNfq6IbpJk7NyzYh+lGki5yd/7N0/eKFm+3nKJ+Zgnusbb3Br93CEH0hh+hFMulJ3lz3x1jN6e3pNG9WwqyuqKKdE1Fwyq6GIPovvK2ij66cBl+Uif2t2P2qDNDVG96HJfW7nFeCpFjn1m8a0p/BR86nK2fGQMddvc4ULGFIL9PCrjcllo+aItJbiM/qAMcB4eHBpGUwe2Jn8Vku4A8+BVuKuDJ+ccuZBR482g4FrHo2o2Dmvprno0gm40sGwO+2R5AUx+7Any9SAfT1fhszW0OKJ2JjQehb2SWTH4VlhSKj8mq/sLaM84k6WrwFYQPyX9sDdeK4Uf2lxBTUuXn1TNC++yBuq2ea1E959TppfL2XQogX47Yp3pgbxc8pv39pSPdBn16o5K8bQmt/VuQmP7tpSPjDNQHiRwdEyH3RDtjE6mHTGp8pFh7El0tbnvw/10TEwlN34/DgkPoZu7mn6a4sgaZ0CNfq6ILg9s8gCnMTg2vzY5tHmg/JNq3BamsEY/d7joBY7RXT9vgNH57UMWbq/1XP2agJHsqpgXvWCfovu81OH/MBHRgDaviqWiFzjUk0WXJ73oM7RrY1pyTw+zIpP0cZroBQ44NsWphEyKMenAZmpm6fKa9HOrWRLbsqJr/LOFt/Cnzi1N54K1dbJ1S7HyTx5UrJ5D51Lp4PnqEw/Zv+gab/Pr2wVR3/amV4KeNdp0LK8jsNiMfn4yIUPq5znyUXUY/l4V0WWy8orpq10XRWRJUkZFnO7tEc1p+qC2FFDL2Oe6Ri+Et/CjLi2D5CPjvFyDfu5QPl0e+OCZaBybawy1RNdc4N/TpTrR/Wl/gk5sNOdKNpRT46cD0uvyNa/jSBbOzavP9qgrdDpR88PvKT0lTRnQmnw8qw6gmSO65oI2N4Th71VbdBVKSsuppKxMzAarbRpOhbqKrrnUpM0dKnrhoWFhVQQ3Ks7yaxgB9SkoLqVXJMvqnV9PV24vfR9FxXr5WnlO/StrdV/38g9RBnNufLP7kvDnKduKP85SNNY5s3s4IZGXu2udBddecZir4hg9dqZrwyvyvrrO9CMQAADYCw7j0+X1tPQfIV/49rhYDn3HIs1sEPh0rcPszw/Le8aJS8mhuGvVL9hpzL3Alm4/AwlWIt8cSe5aFg9btNc/95d8pOHg0pFikFWbh1ceEJmmtPlM+r+vlz6DPua4F1o38qbWoaZH0D96uOrUY0dEjX5uyL1QE9bujaONBxPFjDb2AbNG3N1fk3S87j5dy/dzh4heaBXiIxKXaOdB3Xw0ieZ/fZyCfd2tKLrGwUh2VeoSvWA/omsctHlVLBW9UBsWS0+56/dVDWWccEMLemVyN7HvNNELasfpcuo3TgGnwLPFJi7bIwZdbCW69S1O94x085pi3d6L9MO/xnIaVODIonv3Tc1pUv+28pFxOjXzl/ccG87aZoo/IuOlfm4sTaY2hvv57DEdKNwMS1KfM4lZwkdvjBUP9qYhXRvX2dK9rXdjuiXCdD6XAdeZ38/tPnohvGUAfffUTfJRRQq/R1cdrOxM1hVd0z8IpsBIti7VRS/sikmhvCJNVIKvpxsN6hIqH2ng1I0c16lg7HWctUp7bTfOTDeyRxODCUwQvVAVW0UpWYJb+zSjN6b1QPRCbfiPXkzu17suVrFegHMwODyUxvRqVrkZElJmsFRuzut6hwULH5+y3da3uVkZo4C1YHFTh6x86z/t1ha7Fl3Ovar9KHjaxCMFAMCeqWpNclRS84beNd5MTZboaMcunlq5F9TKp6vtf+PHyakr9omlubWxlXuhvuXTVcO9YEvgXqiKmvl0awpHK0xctpdytdxMCr6eriJVAOffrat7wW7y6ZqDJaIX2NJ9cWJXsezKkp9O0vd7qi4Fg+gFdSg0MPlAn8+2nKZPt9d+uZ6NBxLEci0KPBFGP0yQ4ciVa1mapEZ+0uvGG3gdz+OPSdBMnjFvRppxHh3WmmaMMt3m/P/UF2wZvfDvmVSp3Y7p9HeexbhkWg/qLw9s2WP0gl3fHey7nfzuXpF02pDgAvVgITG1aUcZ1BSOXli4Npre/uV05cYzzfRnpDGvrovReR0v8WJoRtr/dl6w6Iw0vj5D162/AfPh6b615aZOIfTz/EEihn/myPbi7y/SsSK4THGpVWzKOlErS9fWqwFrYyv3Qn1bDfi2pbvlPeNk5RVRZl7Vxz1t6hoyxtwstbH+AqNqTI4I9HGjAB/TqxcYWoHYEVGjn/Ms02fHdZaPLM8X28+bMQ6kbj+v1c8y+3FMbeY1hOPC12fouvU3Z4EX6jS1mRJcR4evz9B162/OgqH7WX+raz9fuzeeVv99gZIzCsSK05baeKHa7/6Jo8+3X5D/p9phjX5u93G6pkCcrjpYeyDNESxdc0GbG6Lu36v1ULfNa2XpAgAAqB21snQjz6XJe8b59WAcbYy0znI92tgqemF8RBO6/XpNYg1jsGXnDPByKqbYdjyJ/jpRNfO/NtVFL+yMvkq5hZpHNV8vV7o5XDP9W8FcS9fQjDSeTl7bfLoju4fS8B7N5CPjjO1t+jWOgD31c1thjX5u1yFj5oCQMfuhLglvaoK5olsTzAkZQ5tXRa1+bivqXcgYAAA4GxBdAABQEauJbnm584RLGab2Qd3OSnm5s38naPOqoM1ritVE17W8SN5zTlzKre83djRcyLnjdF3KnPuerg3O/p1Y4/qsJrru5QVUXlZTa9cqY3oWh8ce3cucJwjeUrip9J1wTmW14TZX6/ocCbfyfPHd1AzH6efWaHOriW6wnycV5VQfPuSoFOVcE9cHdAn0cqWi3FT5yAgWCJZZPLkbLbgzvHLjBCd1iVxgTH2qYqnNq1v6v77SUOoH/N04I8W51mlzq4lux1ZNKC/lnHzkXOSlxIrrA7q0a9nYZJvHXskRmZ8S0/JrvXVuESCWQVK2Xm2DDL7O3O1SSi6diMuQP6Fh8q6dp3YtqsYM13dEP5e+G2ckL8U6bW61OF2m9z0vU45bU/IJbS+XmII/Ss0CqNWO0+UbzK84iY58s1guAQolpaXUc+pLVOLfjryCTa8rVUHN21xt8tPiyC3nAh379lVyd8PKE/pwP8/1bEXeDU1PIqigfre51SxdZuroGyn36hkqyKx+sUJHga8j98ppcV2gKm6urjRtzE2Uk3RSejQzPZvJESjOS6ec5FM0ecQNEFwjcH/g74i/K2fA2m1uVUs3PTuPhs5cSlfTssi3yXXk06idfMYYNf8F5Mzufl4av0tOQbGZmexrBj828w9I44YB9Pcnz1Gwv498BmiTlplLQ2ctpZTMPPJvGi5ZvKZWTLZfq6cg4zJlJ0VTiL83bV85n0KDnWOVX0tT2c8zcsm/WVfyCqqaUF6X+t3mVrV0WZg+eOZecnFxERZi+vl/qTA7pRajncZhgb2WXVi5WVJwOfqiMCuZ0s/tEYLL18HXA8E1TsNAX3p/ntTmUsfKTjxBmZciJcuhen+pvVGSn0mZcYco+/JxIukeeHvO3RDcaqjs59zm0nfG3x1/h46Emm1uVUtXYcP2QzT3ve+osLgijrOBixu5eQeRq7sXH4gyxtXDR7KGw+QjSfTKy8SjKuPX9DrxPoX8tEtUUpAj/ao2J3efYLm04tGgICOR3Lz8yLthG7mUBbREemQ4Lfb9mnWhBlr/b961C1RapAkN4YkdZUX5Uv2ZlWFvnu5utGzOFJo4PEIcg+rhNp+34nsqKKrwr7u4e0vtxG3uI7Wj5pHNRboHtC0jbvN8qT0Y75C2Oq8tyEyS2iWPPPxDpfYNkEulDlOQRUXSj7mLdP94BWqSzXDb5adW5AXwlp6yGjTQWFds0ZQVF8hHFf8vHxfnZ1BpYY4o40fLJbMnCZcJMI1+P3f19CN370DR9tr9rWqbl0ttXjEYZ7TN/aQ299Zq83ypzXMs0eb5UptnVra5m6uL1OZ30T1jrdfmrq9IyPtWo0tYcxp2fTgdiDlPqZnSxYmLzROdhYVN2bhc53FUOs6KPyzOeYeE6TRG3tVYyQpNEh3ZTWpYBQ5fyUupyBTPgqxQXlpC2QlHRV0+jdrr3AS5V85InTa58nOUFmSLxpBaRZzv1KYp/W/RozQ0wnoZ7p0Npc0Pn7pIKRnZUlOWiBubfxSLc1Mrt/LS4iptnnnpgDin3wH5aakgPV50ZO02L8q+Kv2gSj/OUofTaXPpOPPSQVEXu7a025x/zAsyEjSfJS9Navss6fNUBMNfJ7X5lwtn0Kgbu4ljYBr9fs7fZYnUl/i7rfyepc0ibZ5jpM2lfp4ZJz1dSXWZ1+bSvanV5qtVaHPNJ7IyPTq0pO0fz6dPFzxAY27qbvePa/z5+HPy5+XPzZ8f1Izu0ne29eNnxY087uY+1LJxsNQJ7NOX5yJ9rhahwXT7oN70+YsPCX9e7+s0T0rAPBypn9uqzVVxLxijSHoMKS7RzFo7fCGdHv/imHxEIuB9x8LBYn/MG3soK18TCrZseg/q36khLdl4mn49pEnJd3vfZvT8+Oto75k0mvfVcbmUKMDbnTa/MEDsD1m0S2chw48e7kW92wbJRxWPlR7uVXOugrrDYWWFRZrpwvpt7unuQn+/bLjN37mvB93U0Tpt7unhJqIvgOWx135uqzZXzdI1BAubr7dn5ebtqbvoH1tFyjl9A8nb012U64d08HFFXbozSfj9mrp0K/PyqKhL2SC41oNvcu3vWr/NGeWcmm0OwbUe9trPbdXmNhVdAACob0B0AQBARSC6AACgIhBdAABQEYguAACoiE1DxizJZ599RtnZ2fTUU09VGbUEzsmnn35Kjz76qHwEnJ2DBw/SRx99JDZfX1+51PFwGkt34sSJdOXKFbrzzjvp6NGjcilwZlatWiXvAWcmNzeXeOLs4sWLxY+sIwsu4zSiGxwcTEuXLqWnn36aFixYIBqooEAzzxoA4Hhs376dxo8fT4GBgfTdd99R//795TOOi9P5dAcPHkzff/89eXl5icbauXOnfAYA4CikpqbS3Llz6eOPP6bly5cLY8rPz08+69g4jU/XEEeOHBEWb8eOHemFF16goCDNFEDg+PTt25cOHTokHwFnYcOGDfT+++/TQw89RHfddRd5e3vLZ5wDp45e6N27N3377bfUqVMnmjBhAv3yyy/yGQCAvZGQkCB8tiy6X375Jd13331OJ7iM04eMcaPNmDFDRDew2+Gxxx6j5ORk+SwAwB7g/jl16lQaM2aMENywME1ebWfD6UVXoX379rR69WoaPny4eGT53//+J58BANiKs2fP0pQpU4Sb6McffxTRR+7ull/23J5wap+uMRITE+nll1+mwsJC4fN15l9VZwY+XceGo422bNlCzz33nDCGXOtJprd6Y+lq07x5c/rkk0/o3nvvFX6jd999Vz4DALA2x44do3HjxlFGRobw344aNareCC5TL0WXcXNzo9GjR9PGjRvp8uXLYqAtKipKPgsAsAYvvvgizZ8/X2xs6dbHiKJ6K7oKISEhtGzZMpo3bx7NmTNH3BQAAMuye/duYeT4+/sL69YZJjnUlnovugznahgwYAD9/PPPYlIFj6Du27dPPgsAqC35+fnCmGHDhje2cH18fOSz9ZN6OZBmCs7dwFOJOb6Xb5T65G9yJDCQZt/8+uuv9M4779A999xD06dPFwYNgKVrkF69etH69etFmNnIkSPpzz//lM8AAEyRlpYmYuN5YtLnn39OjzzyCARXC1i6Jjhz5oywejmhDkc5OMv8b2cAlq79wfHvnP2N8ybcfvvtTh9zWxtg6ZqAXQz8iz106FDh6+VMRwAAXeLi4mjatGliwIyfEuvDJIfaAku3BnBoGSfOKSkpEb6qpk2bymeALYClax+sWLFCGCNvvfWWiErgcExgHFi6NaBFixbCR8XZjzhtJGewB6C+cvLkSTHJ4eLFi7R582aRVhWCaxpYurUkPT1dTCXmzEj8C8/pI4G6wNK1HTzOsW3bNpHvlgeeXVxgv5kLvqlawgNr/FjFNx9PJ160aJF8BgDn5cCBA2LaroeHhxDdPn36QHBrCL6tOsA3W0REhLj5iouLxUAbLC/grHCuW05Ow8YGP+U5+lpltgKiawE4jOzVV18VIWVPPvkkPfHEE/IZAByfv/76i26++Wbq2bOn8N126dIFK27XAYiuheCbMDw8XFi9nCpyyJAhtGPHDvksAI4Jzyb74IMPRPzt7NmzhVsB1A0MpFkJHtH9v//7PwoNDaWvv/5aLgWWBANp1mPt2rVinTIW2smTJ2MqvAWBpWsl2rZtS7///ruYRszJdDiFJAD2TlZWFk2cOFEkf+JJDryEDgTXssDSVQFek+3xxx8n/qp5nTbM1LEMsHQtC4d/rVmzhl577TWxkgOiEqwDvlUV4Jlr/LjGkyoGDRokJlgAYC/wTMtbbrmFTpw4IZbP4aczCK71gKWrMrxECScDSUpKEoMTjRo1ks+AmgJLt+7wGoGcgvGLL76gbt26ISpBBfBzpjK8PAkvN82TKcaOHSuWLAFAbWJiYmjEiBEiyfiuXbuoe/fuEFyVgOjaAL65r7/+enGzp6SkCP/ZuXPn5LMAWBeOI+cFWVevXk1Lliwhb29v+QxQA4iuDeGbnbOV8aPd3XffLdZpA8Ba7NmzR4wptG7dmv79919q2bKlfAaoCUTXDmjTpo3oBOx64E4RGRkpnwHAMvCP+n/+8x/66aef6JlnnkEEjQ2B6NoJ3Al4JWKOj+RJFfz4B0Bd+e233+jGG28UeUH27t2LgVs7AKJrZzRs2FBkcuJk0NxZeN47ALWBB8p4Cu/WrVvpwQcfxCQHOwEhY3ZMbm6uiHBg3y8Wx6wKQsYMwwNkPNFh4cKFIv4WUQn2BSxdO4ZT5+3cuVOk1ONoB6zPBqqjtLSUBg4cSJs2bRJrld16660QXDsElq6DwPl6J02aRFevXhWDbgCWrjZvv/22mGK+cuVKuuGGG+RSYI/A0nUQeKCNB9m4c7HYcAYoADjOu1+/fnT+/HkxFgDBtX8gug4GPz5ySNmRI0fEqhXs9wX1E47r5qgEzuvBFi4GyhwDiK4Dwn66L7/8UuTp5Yz+L730knwG1AdOnTolnnZ4gJXdKxznDRwHiK4D07lzZ2H1FhQUiE7IidOB81JWViZCvziGm6eQ8xJRwPGA6DoB7OflkLIpU6bQrFmzqKSkRD4DnAWORmB/be/evYXvFotCOi4QXSeBZxrt27eP2rVrJyZV8D5wfAoLC+mOO+4Qq/DyUw0vfAocG4iuk8Hz6vfv30/PPvusWNuKXQ/A8eBIznXr1olcHLw4JCerAc4BRNcJ4VFs9vlxcPzgwYNFkmqEYzsO2dnZYoCUVxhhVwInqwHOAyZH1AOU5Vd+/PFHCggIkEsdH2ebHMEzyj799FP66quvxIoOnDsBOB+wdOsBnDSHE1ePHj1a5O7lzg3si9TUVDFQxq4hzgYGwXVeYOnWM3hJbZ69xCn/QkND5VLHxBks3aKiInrzzTfFD+Py5cvFNQHnBpZuPYOT5rz77rs0ceJEeuutt0ROB2AbLly4IFJ4ZmZmCh88BLd+ANGthwwYMEB08oSEBLrpppsoPj5ePgPUgKdu8yoOjzzyiJjCu2zZMvkMqA9AdOsxnDSHl4HnWU4cB8orwwLrwZ48jkYYMmQINW3aVCQX57hqUL+A6NZzwsPDRef38/MT4WVHjx5FeJkVSE9PpxkzZoil9zdv3iziqEH9BKILBLw+28aNG2nBggViKjGLBKg7nC+BBy15BQd26/z+++8UEhIinwX1EYguqKRFixZCFHr27ClSBnI+BxYNUDuSkpLErEDOCMc+9Iceekg+A+ozCBkDBsnKyhIi4eHhIaId2Adpb9hryBjHQfMEh88++0xMyx43bpx8BgBYusAIPHON5/6PHz9ehJd9++23yF5mBhwGxq6Ebdu20T///APBBVWApQvMgnO4ZmRk0IoVKygsLEwutS32ZOlyYqEPP/xQuGdeeeUVkTsBAEPA0gVmwaFlPJWYw8tYXDjlIKgIA4uJiaHhw4dTXFwc/f333xBcUC2wdEGNmTlzJp05c0aIb5cuXWy2zLetLd2cnBxasmQJHT58mF5//XXq06ePfAYA48DSBTXmk08+oaVLl9LTTz8tsmGx+NQnOKLj4MGDwrr18vKiTZs2QXCB2UB0Qa3gjFgcUsa5GzgjFq9qUB/Cy9LS0sTqDfyj880332BRUFBjILqgTrz22mu0evVq8ZfzCTjrpAqO3OBMYByZ0LVrV1q/fj116NBBPguA+UB0QZ3hVYl5NhtHNYwdO5Z27tzpVOFlnBjo4YcfpjVr1ojr5Bl7ANQWiC6wGHPmzBGrU/DqBzzYxjOyHBl2nbALgVdZZgv366+/tstJIsCxgOgCi9KqVSshVBw2NWnSJDHBwhFz9nJ0xrRp08T0XU5Qg3XKgKVAyBiwGjzoNH/+fLHQIvt8Le0DtUbIGE9y+O9//yvcCPzZR40aJZ8BwDLA0gVWo2HDhkLA7r33XpGwe9WqVXa9JDzH2/KUZ57Ku2XLFggusAqwdIEqcIL0559/Xggax/ZyJrO6YilLly1xXp9s3759tHDhQurXr598BgDLA0sXqIK3tze99957Ink3bzyTi5etsSUcV7x7926R1IejLf744w8ILrA6EF2gKpzImydVsODyozwvN24LeMnzefPmCQuXk/iw9Q2AGkB0gU3ggTVejZiXH+cBK7UmVbBFy9N2J0yYQK1bt6YNGzZQt27d5LMAWB/4dIHNYeFl65fFl6cUu7q6ymeq8sYbb4isXszJkydFwh2G13p74YUXxL4xLl++LHy2RUVFYq0ye0lRCeoXsHSBzWGx5cgGnvH1+OOPV5lUER0dLe8R9e7dW4gtb4yyz+UKsbGxOlESLLI8aWPq1KliJV5OUwnBBbYCogvsgo4dO4rVKSIiIsS6YpzbgCdV8BRcDjfjQS5m4MCB5O7uLvYV+JjLmczMTJH97KOPPhLHLMD3338/7dixg9auXSvC1wCwJXAvALuD3QA8sMWDbbze2OnTp0XOXrZQOdkMJ1PXHoDr378/ffDBByKx+uzZs+nIkSPi9Tx9l1dymDt3Lt12223yqwGwLbB0gd3BqxKzu6FJkyZiOq6SJJ3Fk2e5jRw5UhwrKMds3bLgMmxL/Pzzz8KtAMEF9gQsXWCXKMuX5+XlySUVNOs1mlwGPkPbz5eK49DcGFr9aHdKP7WTXn31VVGmDa/txol4ALAXILrALmE/bFRUlHxUQX5AR4ob+CEtu82f7unlIcq+OVpE8zflUYuds8g766wo08bNzU0k4EHuW2AvQHSBXcJxu5zhi2eMcYjYlStXKO3m5TT/7n40s5+n/KoKPtlfSG/+sJ8a7nxaHHt6eopQMp4mzNEKHE4GgL0A0QUOwcWLF6nHlwF0+YVg8vfUXQgzu7Ccmr+eRi94f0qDBw8WSwnpRzgAYC9gIA04BG3btiUXF+O3K0+o4IQ6PM0YggvsGVi6wOYk5xRRSm6RfGScZ/8oo3HhngbdCz/HFNJbt1jehvB2c6X2Db3JRqvMAycEogtsyl+xaXTX91FUWGJ6JeHycm9yLe9E79zqozOQNvf3PCptwKFl+aLMUjTz96D3bu1I4aF+1CHEWy4FoG5AdIHNqIngKrDwBni0pNxCH3Hs65lHWUUJFhfcppLgrpAE96nfz9LP9/ag7k385DMA1A34dIFNqI3gMiyu2cVnqczlmNh43+KC6ycJ7i0d6WlJcJOyTbs9AKgJEF2gOrUVXDVgwWWXwtN/xFIiBBdYAYguUBVHENz/CMEtlEsBsCwQXaAa9iy4TdilwIK7CYILrAtEF6iCwwhuFgQXWBeILrA6Wx1AcOdKgnsZggtUAKILrIr9C24nCC5QFYgusBpbz6ULwS2wawv3LAQXqApEF1iFbSy4352wS8Ft7OsuohTmwcIFNgCiCyzOtvPpNMmOBZddCs9IgpsAwQU2ANOAgUXJl4T2YEIm2etN1T7Yh4Z+frhGgntgVgSmAQOLAdEFFuXElRy6YWWkfGR/LBvLboWqK0xUB0QXWBK4FwAAQEUgugAAoCIQXQAAUBGILgAAqAhEFwAAVASiCwAAKgLRBQAAFYHoAgCAikB0AQBARSC6AACgIhBdAABQEYguAACoCEQXqEdpMbllJJLflRhqnHiIWifzFintHybfKyfJLTOZqKxUfrERRB2XyV+rjlZcR1IN6gDAhiDLGLAohrKM+WQnUYTrFRrXoyVFhHek9m1aUlBQELm6uorzJSUllJGeTmcvxtOB6FjacDyBjru0pAK/xuI845t1mfp5XKPbu7ekvnIdgYGBOnWkcx0X4uhATCytP5pAJ9zbUKFvI3FeAVnGgK2B6AKLoi+6Ta5F0xeTe9KwwQPlkgri4+Lo4IGD5OHhQTcN6E8hISHymQp+2/wXPfprLKWHdqHmqdG0emoEDerfTz5bwcWLF+nQwUjy8vai/v0HUHDDYPkMEd/WG3/fQrP+jKPMkI5yKUQX2B64F4BVmdEtsIrgxsbG0u233kbPzptHTz35JE2acCdlZ2XJZyu4bcxImtzOS+w/1iu4iuCejImhO265leY/8wzNefwJmjJ5MhUWahKTN2jQgCbcNppuaS4XAGAnQHSBVfnlTAbFJyTKRxV06NCB9uz7l75b+wOt++kn+nPrX+QfECCfreBM7Hn6Kz5P7G88eY0Sk5LFvkKX8HDae2A/ffvD97Th543026Y/yNPTUz5bQfSpM7QzsUg+AsA+gHsBWBR990LgtdP0bKdSatO8MYWFhVHHjp0kgfWXz+qSkZFBZ86coYT4eDpzKZHeSQimnICWFHQlmp7v5kItmoRSu/bthWj7+xuug/26Z05LdSTE06lLSfRuUijl+TWVz8K9AGwPRBdYFH3RfabRJVr8+P1i/9LFS3Tu3Dk6F3uWNm/aLISTb7+cnByaeNckatGiBbWXBLVly5bi9Y8s/S99XdCRXm6WQM//372i7OKFC3T+/HlJWE/TX1skC1muo6SkmMZNmEBNmzYVotxcqou5Z/Eq2lB2ndhnILrA1kB0gUXRF93Becdo7QsPUGBQoFxSwflz5yny4AFy9/CgAQMGUOMmTeQzFaSkXKNbl3xHJwK608j8I/T1gocpQM8FEXv2LEVGRpK3lzcNGDSQGjXSjVRIunKFxi5dR6cDu8olEF1geyC6oE4cvlxCb+wopK2xxeL4ptYu9PfFk9SgQb449s+MpyebpVBEty7UtXs3atWqlSg3BN+Kly5epKioKNp9OIo+zelABb6hFJB+nv7TOot6hnemblIdiiVsiLKyMhHVEC3Vsf3AMfqiKJyKfDSRETUV3fJybxratgv9G1exnPyIDu70whBP6tPCTRwDUFMguqDWsOAO+yyHlo7xpnt6eYiyb44W0dzf86i0wRkhvDP9z9HyuQ9Tfl4eRUdHU0JCAl1LSaFzsedEnG259I99ud26dxeWbJs2bcQgGQ+K3bt4Ja0v60LzQi7Qq088SHlchySmiZcT6cqVZLpw4YJURxCVS0KbkZlBvXr3Jh8fH2rbti116RJOHp4edOdLH9Em19pZuiy4ruWd6J1bfXSu77nN+bR9hh+EF9QKiC6oNZO+yZUsPzea2U83auCT/YX08tZrlF18lm4vOU5fvzxTxONq88/u3bR3z15yc3Ol4SNGUM9eveQzFbDATli4inb59qZJ5VH05UszpdfqitzOHTto37/7hNAOGz6MunbrJp+pICc7m8Yu/JwiAzR110R0/d070uIRjQxe39bYElp3j69cAoD5QHRBrQlalEHxzwWSv2cDuaSC7MJyavp6BpW5HCOXghwaVnaGnhgbQQP7RQiBrA4eVPv7n330wbYo+se9E5V7+Eh1ZNGoBufp8TER1P+GvuTt7S2/2jDZkthu2/0vvbcthg54daZy94p4X6YmoutS1pOSFwQZvL5WSzMpY2GQXAKA+UB0Qa0xR3QVXHOuUaOcBOrRyIPCm/hTiwBP8vNwFX7c7KJSupxZQJGXsyg2q4xSA9pQmU9VQXPNTqHQvMvUI6SijuaBnuTrztOApToKSymB60iQ6sguo7TAtlTmrTt4x0B0ga3B5AhQa3hQiX2c+nCZr2fFxAaFchc3KqEGlFlYQoUlpdJWRkWl0lZWLvYLSyv+ljSQRNSlIp+CPuVSeUlZA8pQ6iguo2KpjmL5vVxHgfS3VPq/iOupI3wNxq6Prx2A2gBLF9QacwbSGhTm0qCSM/TEiB50c/8bjE5qUODJDdv+2U/v7zhFkbJrgF0UQ0pP0+xRfWjwTdeTn1/14VtpaWn01+79tHzHGTruK9XhpvHJYiAN2BqILqgTpkLGxhYdpW9fnkleXhq/Kovip598Qvv37RMDbIOHDKEZjzyiM42XB8HGL/6c9vj2ovFlx2nNi7qDcSkpKbRq5UqK5IQ3Ut3Dhg+nhx+ZUZl1jMnKzKQxi1bTkYCecknNRJdByBiwNHAvgDrB4sOj+Ozf5O2tW1wqBZdpE+KvI7gKJSWlVFxUTEXSVlZaIWja+EkWcTP/ChFuHxpQJfqBKSkukd5fRMXFxVRaVir9v7q+14DAQGrmWzc3AF8LX5NyfXytEFxQF2DpAouiPyPNLyOOFnQsoPun3UXBwZrUi9VxLeUafbj6G1pxtXnF5IjUc7SwO9G0yRNFHl5zuHrlCi3/7Gv6ODOMinwayqU1t3QZzEgDlgSiCyyKvujelHuM1jx5p8iVkJWVRR7uHtQotJGYCMHhY3zz5eXmSueyKSXlqrBeQxo1olZt2tDkD36jKP+uNCz/KK16YhKdOnlShIOx1ctTfqvWkSXcDlxHaONQatqiJU14/w+KDcI0YGA/QHSBRdEX3fmhcfTK7PvkI3YJFFNMTAx99OGHdOTwEXJ3d6cbb7yRHnt8NrUNC9Pxyc5663NandeeXmmeQPMfrUh4w7A7IepEFH384Qd0+PBh8vb2EfkbZs1+jFq1bq1Tx/RXV9G6UiS8AfYDRBdYFH3RDUw5SSuGNaM777hVCKw5FOQX0LcbfqHnI/MpK7ANNbwaQ++PbkXjbh1bZVaaMXja8f9+3EgvHi+nHP+KjGMMRBfYGogusCj6otspI5o+nhJB6ZWugxBq1qyZyLvg6eUlJkcUFhRSRkY6JSYmUkZ6hsiZ4BvUkGb8cJgSGnalbllR9P6UfnQtOYlKS0uFa4FTOAYGBYmIh4o6Cihdem9i4mXKzMiU6vYkdx8/eujHKEoJDZc/DUQX2B6ILrAo+qK7oGkCvThT4xpITU0VSWveeettuhR3iSeTUXjXrvT03P+IBOdBwZqBsqeWf0mrMsPotVaJNPfhaXKpVMe1a3T06FF6d9k7dPlygqijR8+eoo6wdu10BtsefOO/9H0R1kgD9gNEF1gUfdFtdi2avp7ej/r3i5BLNLB4urt7UECgbp5cZsu2HfTQhhhKlazU1qlSHQ8OpOv7aOJtFThjGVvMhiZd/P7nVnr457OU2biLXALRBbYHogssir7oMn5ZCTTQO51u69GKIrpeR+1atxBxuEpcLd+CHHkQezGeDkadpp+PJ9CBksaU599MnGf8M+JosF8W3dK9FfXt1kmqo6WO0HIdmZmZch1n6Kdj8RRZ1ozy/XWTo0N0ga2B6AKLYkh0FRqUFJHH1VgKyLhAwSWZ1NDTRYhlamE5pXs0pOyGYVTUqB2Rq/EBtwYlhVIdZ6U6LlXWUSbVkVZZRzupjjCjdUB0ga2B6AKLYkh0XfLSqVNhHN3aMYh6hrWgLu1aUZOQYJ2BtKSUVDp5Po4On0+iTeez6LxPGJV5aSxZt9w06lgUT7d1CqbubZtX1NGooc5AWmJKGp08d4kipTr+vJBNF3zbUZmnrlhCdIGtgegCi6IvuhwytnxEa5p02yidkDFOUh4THS0mOnTu0kVnmm+BJKBfb9xEC/ZlUVZQGwrmkLGx7Wj82BE6IWO5OTkUHRND3pJ4d5HqcNOrf/WGP2jhkUKEjAG7ArkXgFWZGe5LUyfoxujGxsZS/xv60ZS7JtOd48bT6BEjKTsrSz5LIlfDjCkT6M5mFUl05vQKoEm3j9ER3JOS2N4k1TFt8t004Y5xdOvYW0QeBgWeqfbYvZNoTFCOXAKAfQDRBVZl98V0Sk9Ll48q4CXSf/n9N3pz2du0fMV7tO6nDeSvt9Ivr+R74EqB2N91LoUyMzLEvgKvo/bzb7/R0rfeovfef5++W/tDlaQ4CYlJdDS1RD4CwD6AewFYFH33gk/6JZrZ+BoN6HmdWMOsdZs2VbKBKfDEh4sXLlBMdAztOBxDn+e2p0K/UApIO0ePt8yivl2vo27duoqpvtXVceH8eVHH1sgoWlPUBQlvgF0B0QUWRV90Z/jE0gfPzhB+Ws65EHfpkoitPXP6DAUGBVaEemVkioUp+bhN27bUuXNnYbXes2glbSjvQk8FX6Alcx6k/Px84VaIj4ujZMkSrlxRuLxM1NEnoq9IcN62bRh17tJZuDTuWPAh/eWuWbASogtsDUQXWBR90R2Rf4R+XDSrSk7dA/v3079794ryQYMHi1lp2vAClSMXrKKjwX3pjpLj9JWBFYX5/ZwI3cfHl4YMHUKdrtMktmE4ifmIhV/SiaDarQasANEFlgSiCyyKvuh6ZFym6a5RdNcdY6hPnz4ml+vJSE8XmcO+//VP+tY1gkr9G5NXRjw95H2Gxo8dSb2lOsxZrufIocP03a9b6HuPflTqFyKfgegC2wPRBRZFX3SnuJ6kL1+aRVeuXKHjx45RXm4e5eTmiETlinhyjtzmLZqTp4encDF079FDuA3uWriSNrt3pwc8T9HK52dScnKyqCM/L1+8Jy01lXz9fOU6cqhVq1bk6uYqkqVzLgZfX1+67cWPabcPLF1gPyB6AVgVZbyrSZMmNHLUKBo3YTzdNXkyNW7cmKKjo+ns2TN0XefraPLdd4tzQ4YOpZCQEDFQprxXGTTjzGKjRo8Wr5s0+S6RsSwqKopiz8aKQbqJd02i8RMm0M1DhlSuUiHVIv4CYC/A0gUWRd/Sdc/PoMl+l+nx8UOoZ7fwSgE1BkcfHD52gpZv3EU/F7WlMq8A8shPp6mByTR73BDq3lWTvMYYJSUldOjocXrnp130e2l7nZltsHSBrYHoAouiL7oC6RbzzYynliUpdHNYQ+rYyJcaBvqRv4+3WGonKzeP0rJy6PTVXNp5MYMSPZpQfqBmFpmgvIx8M6Q6Sq/RkHYVdQQH+Et1eIncCzl5+ZSamUMnr+bQrkuZlOjZlAoCmstv1lBT0fVyc6FTT91ITfyqLowJQG2A6AKLYlB09ZFuuQYlBdSglGecNaByV3cqd/OUdmvgCuA6iqU6yrTqcOfVg6uvoyaiy4K7blp3Gt7OvAU1ATAH+HSB+kjiWu7uLVwH/Ohf7u5VM8FluA4PvTos6L/1lAT3x6kQXGB5ILoA6CEEd0o3GtEeggssD0QXAC0UwR3ZQTN1GABLAtEFQMbTFYILrA9EFwAJFty1UyG4wPpAdEG9x8O1Af0wpSuNguACFYDognoNC+7aKd1odEdNfgYArAlEF9RbKixcCC5QF4guqJe4y4I7BoILVAaiCxyK8nJv8nfvSC5lPcXG+1xWE9xdKlwKEFxgCyC6wGFgcXUt70SLRzSi5AVBYuN9LjNXeHnO2vd3Q3CB7UDuBWBRCkrK6GxqnnxkWZ79o4zGhXvSzH6cY0HDJ/sL6eeYQnrrFtM2RKtALwry0qwqDIDaQHSBwxC0KIPinwskf0/dHAvZheXUamkmZSwMkksAsF/gXgAAABWB6AKHYUQHd/rmaJF8pIHL+BwAjgBEFzgMLwzxpOc25wsfLrsUeON9LuNzADgC8OkCh+Lw5RJ6Y0chbY3l5OUV1i8Lbp8WGBwDjgFEFwAAVATuBQAAUBGILgAAqAhEF9SIjIwMuv/++2nBggVUUFAgl2rKeeN9fUydN5fa1GPsPdXVpZzr27evzrZ161aD5YbqAMAQEF1gEmPiZKzcFMr79IVL2Wpan7lERUXRnDlzDNZt7Fq6detG27ZtExvvKxgrB8AUEF1gkqCgIFqxYoXYj42NFX/j4+NpxowZYp/P8WtqiiJchw4dEpu+gBkS5+HDhwvx5I33tc8pmzHRfvPNN8VfFt6LFy+Kv0pdynUBYG0gusAkLGCKQM2fP1/8jY6OpqSkJLGvbT3ysSKGLH5xcXHir7ZYmitwLORr1qypIsr6Yq2/8XuUHwHlszMdOnQQfxnlh4TrYjH+6quvRLn+D4hyPcrnVzBWDoApEDIGzEZbfBkWLMUCVoRt0aJFtHDhQrGvLWDa4qe8xphYKfVqi5/2+/XPVYeh9+lfhzaG/m9D1PbzAABLF5iFIjLTp08XwjRmzBhRzmV8rjZwPWyx6luw2paqIfj/03c7KJu2a0H5zCyuvLFVyq95++23adWqVQYt5+r+b+X/5Y1hsWXq8h2A+gdEF5hEES9GeURv2rRppehMnDhRiDFjDd+otngyLIrG3A761qzyI8Hb+vXrxV9Gu05FkBXB5s2QqCuuBOX1+sfagg+AMSC6wCSKyLGgKa4DFjNt8YuIiBDlpmCBUoTZmHixwGkLoLZ46qOcZ7Qf85XPZuhzKYOA/P/pizGjfV36os77hixk3vg9yv8PgDEgusAkiuVXnTgaQ/+9DzzwQKUQsotiz549BkWMBYxRBFV7EKyu8CDgU089Jf6/6tD+7Iwi6rwpVj6fM/UdAKANRBeYRLH8tMVR3zo0hv57a4LyXm0LUlvwDT3ym/NDwJ9DEXF+H7tH+K+CvtjyZ9f+DIz2dTEQX2AuEF1gFiwmig/UECxCbP0ZC70yBD/mT5o0qYpwVideLJiKNWzo0b+mj/n8PkPuBf78XKZ8JkXk9WekKZ+dX2vONQMA0QVmwWKibdmxdcjUVGiSk5MrXQaLFy+mkJCQSsFUBNTasEiaO+Bn7LOp/ZmB8wDRBWajbe1qz+7icuWcEsWglNsjLJLVuRcAsCYQXWASFk99H+eIESOElctERkZWWq88SKaUc5n+jLTNmzeLc9oWMpfzeeU15qD9mcx9j2Kta7sfWICr808b+2y1+cwAMJiRBgAAKgJLFwAAVASiCwAAKgLRBQAAFYHoAgCAikB0AQBARSC6AACgIhBdAABQEYguAACoCEQXAABUBKILAAAqAtEFAAAVgegCAICKQHQBAEBFILoAAKAiEF0AAFARiC4AAKgIRBcAAFQEogsAACoC0QUAABWB6AIAgIpAdAEAQEUgugAAoCIQXQAAUA2i/wdyUVJ+t8XlugAAAABJRU5ErkJggg==;" vertex="1" parent="1">
          <mxGeometry x="20.139999999999986" y="955" width="154.49" height="139" as="geometry" />
        </mxCell>
        <mxCell id="6Q1Rw0imLt8EeE4JK44i-62" value="" style="group" vertex="1" connectable="0" parent="1">
          <mxGeometry x="30.379999999999995" y="623" width="144.25" height="146" as="geometry" />
        </mxCell>
        <mxCell id="6Q1Rw0imLt8EeE4JK44i-51" value="" style="shape=image;verticalLabelPosition=bottom;labelBackgroundColor=default;verticalAlign=top;aspect=fixed;imageAspect=0;image=data:image/png,iVBORw0KGgoAAAANSUhEUgAAAH0AAAB9CAYAAACPgGwlAAAAAXNSR0IArs4c6QAADEpJREFUeF7tnQl0VNUZx/93QiaZkMCQRElIRJF9X8QCx4VFloTWalUUsfaALGprCIpbj6hQtbWalAAVKYjVUrbW1q2GgBYL6OFQFiVQ9kXALGASsk8yk7zbc2cyb2ayMG/evHnzyL1z9IT33vd9937f73733ffeffcRiB93ESDceSwchoDOYSMQ0AV0DiPAocsi0wV0DiPAocsi0wV0DiPAocsi0wV0DiPAocsi0wV0DiPAocsi0wV0DiPAocsi0wV0DiPAocsi0wV0DiPAocsi0wV0DiPAocsi0wV0DiPAocsi0wV0DiPAoctXdaYPfjJ3LDGZ/uPNLT87zenTkIV51Hs/hTT1UPbULUOezlsNirnyMYI1+Vlp8wYvzE0nMOUqsiVJ4w4tnbrjam0v7Rl6CYAENxgV0Evzs9MSW21AAnr42nvLTCe2/OwpMU2gNIS+tRagFrkBCegCevgioK7kdta9i0xX0gwE9LYHcl7ndNG9K2lMusiIc7q6MItMF5muruWES0tkurrIXxWZftPifTENlSWjJBNuINTr0onS3oSYFnhcJw5AatombwDo6DnWuBIw/Y8QzKCU3OLeTwj9mlJsAKSBQMQvvcJYA9BnXdumHIBGypdsVMohhJyUtwmxmSR816FT4p79i0fWqkOhn5ahoQ9duOVWgGRQ4P7gQ8Ju0BHnf/C+VydvNx0PsiAC/A2gKw5mp38VpKmQqRsW+tCFeb+nQFOmBe7/bf2vwa6jP3gp6gNd7kGANw5mpz0XeM1Dr2FI6IOf2rKOEPJzNe4Pu8GKB27pjgGpnZCx9gDOl7h7W32hs7pTSv966A/pD6vxI5Q6hoMeTIYz0BsXjJHj9dHeAry8+XDTtv7QnQUTmpWflf5MKCEGattQ0Nk5nILsUuyEz3M0l9aL0wbivtGpsoln1h3Etm+LXedyZ/q1Yr2tY0p0FFTWRCLGf5s1yedpoAK1kIkYDHre5mAHbYO6d8b6+aPlgB0vrMKslf9FTV1DyILo3zD9JD87/S7/cvpIGAY6uyxzVJXUaOH2q9MH486R3WRT724/i2W5J7QwrdqGva428dhb95SqNqChomGgD30qbzwl2K6FbyN7xmPt4zf7mJr99l7sO12mhXl1NkxIz38zLU+dsrZahoE++Om8WYTiXa3ce/PhoZg8NEk2t/tEKR5bvU8r82rszM3PTntHjaLWOoaBPvCJv78YERX3G60cvKVfIlbOucnHXNYnx7Bu5zmtigjIjqO+6pWjf5z2UkBKIRI2DPR+895fZY7r+qiWfq54ZARuH3CNbLK8xu4c1J25qMnQIaCq1lcWrz2+ZuacgJRCJGwY6H3mrN0Q3TnlQS39nDCoK5bOHOZj8l/7C/HCxkNaFqPIVl1lwaYTa2Zr6p+iglsR0gU6exrmr4KOuvKXzDHxE/zJuS60lVd79aMjMaq3PD/Saf7X6/OR+02R/6I0lLDXlm2PjLb6PX3pMctWefSCCEDz6chBmApYNX14Ml5/aIiP3uniamc3X1HrCNheqBXcU7hDWU67h86C9/4To8DuyXv/Vm07jbe3nQplbFXZFtBVha2l0t0/SsGS+wf5HPihsh7Tc3ajpLJeo1K0MdMOoRNbm6Gh1AyCCG1C19JKa9l++EIFXv3gCI4WVIaqWI9dikYQYm+7INfkkHYDXUlE+8x5Z1N059QHlMiqkRk38FosmzW8VdXPDhRh76kylFTV43KNHezS7nKNQ9P79XUV328+8c6c6WrqrrWOLud0JZUONXRWh69emYA4i2vWExvM9UyKvWLVHI0SymscTQ3B0dQYWKPw3edodD26u9JtXu6ge43e237gQKU4EJNZSQNRI9M9MQafPn+bU5UN4NhA7rHJPfH45F5qzLXQ8TswpJIdxFR1hcKc15XtpnsP5yWbO8hJ1mhsXeS6XcBuxa7IPYGMqX3w8O3X6wNdYSkCusJAKREb0ycBq+aNlEXrGyREdTApUVUk4zfTFVkRma4wTMrEGHAGvvmvrNqO1Z+fdt6oiY81o2N0BzQ0UjRIkuuv838JDZLrLzt/e/9l+0ur7LhYUafJwK/dZDp74d8fmgZb+fORli63+5ML5Bas29a0Mddh0b0DWjWd/tudKCxr+0rSf328JVqbi+U67rBd3tnBYn3dnz22cII/mWCPt/vRe3RkBNZnjkavNkbqY1/+0jkqD/WPv9E7W/LDz09y2O4wRVpu9CfX6sTGKyjNHNcDT/6kT5sSmkNvI40kh+2MKdLyb3/+saVQ/MkEe1yXTA/X6D0hzoz1mWOQbI3WD3qQRNrNOT1c0H+V1gvzJvb0wcDeemFvv7h/mme6gO6KQDigs5sx7FzeqekOHKvHpYo6LPzLQazLGCWgB9k4/ao7l/HS+Zz+7F398NBtvjdeFm06hF1HS7BjyfjQQRfndH+oPce1vPfeP6UTNmSOhsnkIbDp6/P43YdHYe1oDi30NlzmbvSu93X6kgcG4e6bU+TwHz5fgXl/2oea+oYQQxfX6XLQ9Tynt/aiAwO+56TrWU+4Ml1pnydG70oj5SWX9YthmDSkq7xnee5JrN1+Rt4W0NXc01QBQq9MZ3Pc2Vx392/74Yt48r1vfWosoOsPPaTP05c/MgJjm15uYJdnrFs/e8n3xYawQeftebqSzkGL0Tt7d23Grd0xvEcXvLT5MD7eW9Ci6HBB5270rhd0dzn3jErFP/d832qxArru3Xv4ZsO6W0C4oIO32bB6DeSU9Chhg66kcmKOnMIoBSgmoOvevQdIKATiArpO0MP51mrzdhMu6Ny9taokYbW4ZFNSTrigi0u2VugI6EqarDYyukyXUlJVAV1JlLSRMQz0XrPXrIuxXqdqPdhAQhGu7t12+cL6k+/ODbl/SmJhGOg3zliaE5vcP1NJpYORCRf06pITb515f/4TwdRdK13DQE/96XOZ8b3H5wTsWHMP3PMYWux3rVVjjTVjx2Kv6VKLv0R5NZv3TgHSTKlNWwHXEiWndj1T+PFrWYFraq9hGOjd0uZPj0sdvjGqc7L2XjotKoAewAJGgVTSXnURlef3P1iYt3xTIHqhkjUM9JRJC4ZFxFm/sfbwLOarrdPhg17x3R40VF4eXvB5ju/DfW0dVGzNMNBZjZPTMi/Edu2bakn0/6KLYg9lwfBAry09g5ri498X5S27LvA6h0bDWNCnzH8VhLwQlzIE0VbPxEZtXNcfel15AaoK8tknHl4r2rp8kTZ+BG/FUNDj0zM6RVPTMQokd0zqi5gELTPe82WHxLgoOXJsnRnX+3GBLUroL/RNGc5GCUV1ROpXtmWFDqsZ+auV67ihoLMKdUtfcDel9EP2b3PHBFgSroc5zjPRUZlbrUnp8zkPNmizlX4He41rmXFCyM8Kt+R8pL7e2msaDjpzMSltwUwC+me3uyQiEpExVpg6RIEQz+oREeYYWBJ6eM7alKKm+IhzO7ZrP8DkWaHMVnYOjfXViLJ2Q6Sli6zjsF1GfXkhIqJiYYn3eiNGakT1xWNOuY5JAxg8WcdWehaNds/n1yiVIDXUw1FbDtroWYWSgswqzst5T3tswVk0JPQm8OMIKLuu9V2/28vfyJh4WHt43ktjwS85stUpkdj3DpAOnnWLKs7thb26BHEpgxBt9Yyp6sovoKrgMMyxieh8vefDALTBjpLjrjeLEwdM8Wls5Wf3wFF7xQ8G7KcgTxfn5Rjmuy3ezcSw0N2V7DYlcwYluA8A+wyTZ9V+AAaDXgxgN6H4oHDrsg3B5WJotQ0P3dv9XukZURW2Rvnzl9cOmHhrhCXGa7kOYiva//G1TCd5xJ3nQEi8W1+y19578dAX25JG/HgFIREz3fspbXyv+MBnGV0HT5xsMsf8w+tcUVZ04FNnf598012XAM/nPhtttemXjnwhf2GxsyXCcWrLCmOtN3qFdnNVQW/uh/jArroeQUAXn9JW13LCpSUyXV3kRaaLTFfXcsKl1TLTPSsuNp9rTyFNZWu0OVfFoJgr17lt6PI6rS1sSdI4PT67Eaq4trNMF9CVNJSrGroSB4VMywgI6By2CgFdQOcwAhy6LDJdQOcwAhy6LDJdQOcwAhy6LDJdQOcwAhy6LDJdQOcwAhy6LDJdQOcwAhy6LDJdQOcwAhy6LDJdQOcwAhy6LDJdQOcwAhy6LDJdQOcwAhy6LDJdQOcwAhy6LDKdQ+j/B/Fvh9hSdPSBAAAAAElFTkSuQmCC;" vertex="1" parent="6Q1Rw0imLt8EeE4JK44i-62">
          <mxGeometry y="10.618181818181817" width="41.38319672131148" height="41.38319672131148" as="geometry" />
        </mxCell>
        <mxCell id="6Q1Rw0imLt8EeE4JK44i-52" value="" style="shape=image;verticalLabelPosition=bottom;labelBackgroundColor=default;verticalAlign=top;aspect=fixed;imageAspect=0;image=data:image/png,iVBORw0KGgoAAAANSUhEUgAAAH0AAAB9CAYAAACPgGwlAAAAAXNSR0IArs4c6QAADKJJREFUeF7tnX9wFOUZx7/v3uVyCfklhhCIDVApVpGgKNUyCjgiucTpdKxCa0dQqzjoKDEmMEpHRNtiC0R+WTsycVAZFYlFLRouCAr+IjYB5EK0oKgJJIGEEC4JyeVyt9vZhPuR7OV29+72ssn77vAHl33e532e5/M+777vu+/uErCDuggQ6jxmDoNBp7ARMOgMOoURoNBllukMOoURoNBllukMOoURoNBllukMOoURoNBllukMOoURoNBllukMOoURoNBllukMOoURoNBllukMOoURoNBllukMOoURoNBllukMOoURoNBllukMOoURoNDlIZ3pU/JLZxGO2+fPzVZk6fEpq8Aq+P9dAJ9bVZS7K6vQuhkCFvmdK7YVWRZNKSjNIeBKFeni+dlV63L3D9X2MpyhnwVwqQdMCNCbbUWW1IANiEEfvPYuzXTSaSvKjr8IKoLQyzoAIc7bgBh0Bn3wIhBazcOse2eZrqQZMOjAQAM5v2s6696VNKaoyLBremhhZpnOMj20ljNYpVimhxb5IZPpU5/YMwmCczwPzjt1IsBkcPibby4OJ3jMF38TTtgKkES/c8+BxyHOQB4RBGGu398/Ao9/gsM0AqzwhVFoE3iyoOc3h+0EMHnP8fizAFR7fxOhW+Bw6ujaHFtoGKJbStfQJ+dbJxqI8JhAyDwCjAkvNOICHen5hz5rdX74w39HQ4sgCNsF3rjh6Prbvg3PXu1K6xZ61hOlhSDcmsi5HhXoPnMJWWZbmx1B+yMXCV1CzyqwrgeQFzk3RU1Rht5r/AZbkeXxyPoRvjbdQc8q3PUUBLIqfNf6a1AP/frLR0rMqDxxTp1pRFhuW5vzvLpC2krrCvrkJ6xTDQRfa+uyMu0cITi8xjve8xaatmw33HzAQcGAit0Crql+wXJEWc3aS+kK+tQC6xYBuE97t+VrMBk5VPz9Nongjcv3oNPpllfgJ0GAV48UWe5XVUhDYd1Anzdvu+FYZtIFALEa+qtYdZzJgPJVcyTyM1d8DHtHt2I9FwW7rqhtHVFSMl9da1Fbi0J53UCfWvDRTQLcnym0W3OxBLMRX/z1Vkk9c57bh6bWLtX1Ewg3HynK+Vx1QQ0K6AZ61lLrQvB4Tc7HSxNNSDDHoKZJ7BS0O1JGmLD/2VskFeSu+hR15zrVV8zhXtsay+vqC0a+hG6gX/loyXMxsYlPB3Nx0phElBTM6BGp+P4cSspPouzr05GPCoDUxFjsfWa2RPcdaz7HD2fUNzh3V9uK6hfn/UUTY1Uq1Q30Kxa9WhyblP5AMPvFKdQrD0/vI9LW6eqBv6P8FE42d6h0f2Dx0clm7H56lkRg/gtf4lh9m+p6nG1nXv7f5nsXqy6oQQHdQJ+06JW3zEkZf1AL3V/+wPFmlBw4ib1VZ8IOVcbIOJQunynRc8/GclTV2lXrd9jr3jpe/MAfVRfUoEBUoItr6HK2d3c0rjcnpN0eDnRP2ZZ2Z0/2/6eiPuTsz0yNx84nb5aY88C/KqB6gQaAo73xw5j4NNnVuep1lu/lYhXu+ahA778dOVSjA3Xvcro++7YJO76qw8dH1WX/z0ePwLtLb5KoX7y5EmKPotXh2cKtlX5R77CH7gmeOM16p/wkPjzYoCj7/QeN/gDythzGvupGzZgw6P1CG0qmB6Lz8dFG7KysD5r9V2YkYVv+ryXFl249gt1HtJkxiJUx6BpB96htaOnEexV1AbP/6sxkvLHkRgn05W9V4cOD9SzT5SIwOd8qvV3Vr1B3++lic1L6HZEYyMnZEzj7z2BnZYM3+68Zn4LXHr1BIvpsSTV2fHVKdRWO1tPvxiSkPyhXsHqdReVtPDmN0vNRuaYrMWvSg8XbzMmX/X6woHvqFef6HxysR+WJFsmagCjz/LvfYtsXtUpc6iPjsJ96+3jxg0GnpKqVhlggKtAvjt6D7x/j3ZngDCmDDV0ujkU7j+H1/T/JiUnP8+7z4AxyrSWLXdM1vqarJwds2vUdivf+EEpRRWUYdB1Ct9Wcxxuf1fZc+50uXhFINUIMug6h+5v0fkUdyo83o/RwgxquQWWHE3TZUavL0fqQ0ZzU926KzqF7zMtZ9SnqZW63uhytFUZz0ma51mErshTLyYR7PioDOSVG6mX0rsTW/jJK1uPpG70Xlq2UC6arq/0uoylhsvzo/Xo5VVE/74M+cA65nO3VxtiEd+SMs63Nlo2VnA6581HJ9GjccOk/jSKEYMHMcRL/A023Fs4aL5ETl1pPnG73/l3Ut3ju5QHjqSTT5UB4zg+na7q6PcMDRGigtfeubjd+9dQeSamD/5gLo8HXrsXR9vQnP5LIibtexd2v/kcgkMUPT8f0AHvhGfQAwLTOdAZdaT/SKxe97p2QPq/r6m8m73Jeyxligj6kOJQznXd3N3BG0+GgeAQhd9h070raYTij96GQ6dSN3q8u3JUlB767vWl17Ii0bPnRu3QqPxSgd11oLItJGLVMLg7ReMY9et27nLcKzgfbRGH9WroqZrlGerVQKiduc25u7/tQQ6BBnGg2G8gNwkBOQXvRVIRBZ9DDamDDZiCn9ZQtrChHoDDL9ABBHL/yE7NcbGPqftwalzT2rlAGcmKZrZ/23dggrqDdc7N0Re7tL2slt0QXzNR+Ra6ztf6d7owJvS8uCnL8tPIWh5xMuOejMpBTYmQ0pmyiHVMLyyTmRGNFjropm6d7J8CAT28IPJ8OjksIJdOVTtlE3bOe+QTnLzj7VBMN6OD5dsJxQfdOC8BEdk3v1wLCXZEbVOhKuju2710aJQZdYcuREYvKNV3r0fuQ6N4V8ho23fuUfKvsI7quLvtjMeZk6SMlfsHqyfRHAu+oKj0kXZHLnSZdkVN6TQ9pRS7IDeRuh73cGJu8SY591TrLm3Iy4Z6PSqYrMTKc0bsS/R4ZpdDV6FQyT6du9K4kgAy6kihFRoZluvj+mgA7Z9SEl2W6mmj5yf7iT6+8GXdJxt2hzNPVVDlY3Xtnc+0b37360D1qbNVKVjeZPnHhiy/Fj5r48HCFfqHxu00ntj62RCuQavTqBnrm71Y8lTJhRtAXAUfipQRKl2HVBFFJ9372+/1L699/fq0avVrJ6gb6mOwlC1LG3/B6TIL3o4kSnyMB/b3/1sHp6vu2zvkzMsOKrxz0rrYmtNYcXNhQtn5rWBVFqLBuoI/OzbvBPCKtPDnzugFdG2E2YuP91yLQK7kjFA/VasQ3TS3ZchgXHK4By9prK+FqOzujzrr+gOoKNCigG+iib2MseU2JY6ekmi+5TANX1b/vPRJGOFpOoq3+aEuDdYPs2zgiUZ8SHbqCPtaSt1oAliaPux6mhFFK7FchE33ozvYm2GsqxY9KrG8o25CvwlhNRXUF/bLs/JFuwosfvElLzMiCOSUjgs5HF7rjfB3a6mwQINjdnOuXTaUvafdKKpVR0hX03i5+yR0A2SH+PzY5HXEjxyMm/hKVbgUSjw707k47Opt/RJe9914AgXB3vXXjtgg4EDEVuoMuepZuefw+AmGLx0uDKR7GuBQYTHEgnNHrPBdjhjl5rPe3IAg9AReP+JHjAM7gPdfV2gC3sxOmxFQYY5O8f3c52iB2w6Lu2CS/GzS8Gx3nanrk4i6dAHH7ledw2OvBd/vtauJ5uF2dcHWch6vL99AjgMUN1g0vR4xWhBTpEnpPxs/NmwkDVkOA9L1eF52PiR+JlAm+04LA4+w3vduhUq+4FcTo+36evaYCzvazSMy4GuaUn/kAtpxCW30VTAmpSB7nu4MnuJw4e2xvr66rskGI7wHH8z9+he6OoG/+OsRBWFZn3dirQGeHbqF74jQmO+9OENwJCDMA0meno66gE9QKPA4Awo7TZRu364xzH3N0D72PtbNXGkeh0buzNu2qOTcZ4uJ3+WRIZ8PB99N6eoppv6kBId5pEu/suPNM1Z7d6dNu30SIwftxIIHnXzt9+INHR0+ZM5czxf/b71pxruHQzp5GNua63zYCgvdzn+7OjpzGb/Z4P83RhDQH9q0ceKKusxYwtKD3Cx77wG5orYlBZ5/SDq3lDFYplumhRZ5lOsv00FrOYJWSZrrvfen9d+AK4HOrinJ3ZRVaN0PAIj+bi21FlkVTCkpzCLg+b8vw7EyV6OL52VXrcvcPlt/h1jvMMp1BV9IghjR0JQ4yGWkEGHQKWwWDzqBTGAEKXWaZzqBTGAEKXWaZzqBTGAEKXWaZzqBTGAEKXWaZzqBTGAEKXWaZzqBTGAEKXWaZzqBTGAEKXWaZzqBTGAEKXWaZzqBTGAEKXWaZzqBTGAEKXWaZzqBTGAEKXWaZTiH0/wPZGxPnHkiAFAAAAABJRU5ErkJggg==;" vertex="1" parent="6Q1Rw0imLt8EeE4JK44i-62">
          <mxGeometry x="51.43340163934426" y="10.618181818181817" width="41.38319672131148" height="41.38319672131148" as="geometry" />
        </mxCell>
        <mxCell id="6Q1Rw0imLt8EeE4JK44i-53" value="" style="shape=image;verticalLabelPosition=bottom;labelBackgroundColor=default;verticalAlign=top;aspect=fixed;imageAspect=0;image=data:image/png,iVBORw0KGgoAAAANSUhEUgAAAH0AAAB9CAYAAACPgGwlAAAAAXNSR0IArs4c6QAAC2JJREFUeF7tnXt0FNUdx793NpvsRpYNISQkQV4VpAQC8rCnFSjlYTbpqdBTQcGiVIPtAZFHoMfKqa2K1VYCQSz08Ka0hYJWezyGgECpYjkqYN0IlbcBQoDwSAhmk33M7ZkN+yDLZmdnZ3cne+8c/mAzv/ub3+/7ub+ZOzt37hLwjTkFCHMZ84TBoTPYCTh0Dp1BBRhMmVc6h86gAgymzCudQ2dQAQZT5pXOoTOoAIMp80rn0BlUgMGUeaVz6AwqwGDKvNI5dAYVYDBlXukcOoMKMJgyr3QOnUEFGEyZVzqHzqACDKbMK51DZ1ABBlNu15U+cF7594kg7PPnZi21uHPKL6mg/n+nEIsqS4t25C+oWA2KGd59BGusSyxPDywpLyQQymX5EsXRlcuK/t1e+0siQ78CoLMHjALoV62llow7diAOPX79PbDSic1aWpB6C5SK0Hc2AtTo7UAcOocePwWUHTnBTu+80uV0Aw49+EDO75rOT+9yOlNMbPg1XZnMvNJ5pSvrOfFqxStdmfLtptIHzd/dF9TeU4TgvXUiQB4EvOK7F4cdIiZLn4lANwPE5LfvJYg4LOjITErpg56/E0J2iS66EgKGEOAFn4y0gYpkmvuzgG0ESPbuE7GIAkc8nwWINiqSKuvywmPKMMS2laah582ruEdH6GxKyCQCZEcmjfQFHXH/g/93dd7Pt/ZHcBAK1BBKt7soWXFkmeVkBK6i2lSz0PPnly8AEV5XL/voQ78tVioutC4tWqJe/Op50iT0/JKKMgBz1EtT8hRj6C3BL7eWWuaqm0fk3jQHPX/Bjl+Bkt9FnlprD3GBLgWxyFpqiUI+yhXSFPS8+RWDdAT/VZ6ONltSkGGVpQWHtBKdpqAPKqnYQIHpWhFHxTi2WEstU1X0F5ErzUCfNGmb7lj3jt8ASIkoI602JqSDdUmBlF/cN81AH1TywQgK10dxVyRKAVCC8ZVLLLuj5D4st5qBnr+w4nGI2BRW9O3JWKTF1mWF67QQsmag5z2z/de6FNNLWhAlGjE4mhte/t+bk/y+8YvGUeT51Az0fk9v+lOyKevn8sJuf1bNNy6uO7ZmerEWItcM9L7F6/5mMOdO0YIo0Yih6Ub11uNrntJEfjGBLj0NCyWko6nuheTU9DGh7LzfrIU21JSFvfHaXr0hLeTlKxazbGMCvfV0ZE3R0Fgwninc0QyLQ4+mugp8c+hhipaTbsSUB7rDZEwKs2Vwc7tTxFsHzuN4TYNqPttylIjQm4IlTCjVU0J0SpXt2eUubJx1Pzp18M11UOrrTu2eXPkpDp2+rtglodRFCXG04cAg7UsY6HKU6lu8dqvB3O0RObZ3svnt5Dz8+P5ut+368GgtLtc3ISvNgJHf7qLUtbvdgeNX8YvVBxX7aKo///fja4sfVexAxYYxuabLiTdS6CuLh+KBfu63kHDw1DXMWncYTXaX99DGZB3+WDwUQ3t3khNOgM2JmgY8XPofRW2lRsxB9xu9Xw2qGhVNIILic7MH+qW6Jjz0h/23AfccUwL/3nMj0aVj+M90IoUOKtpBhLYGBu737hLm9B6LWzYP9BU7TmDtntNB+1ZXswFdO3nnVsquXJvdhWMXJGa3vQwru71cQw5drlIAPNBnrj2Ej7+S3l2MwRb5XMqAIDn0MLh5oC/c/AV2fXExjJbaMk0Y6NIL/6GkddrqntMbO40KZdcyhzlw80D/xyfn8eJ275T0AMMJw3IwuFf4gznpLmDVrlMhwgt+6nfYrn+YZEx7LVR+0sIJoWwi3Z+Qo/c5Gz7HviOXA7T5QV4myn52nyLNIh3IsTd6l5b8CLGJDttYQW/sHcou2DjK/5ZN8rH8/eNY/68zXndPjumFOUV9Q7oPZiAbepAyEh2204LeuCdUANJSKKFsIt0fk0qP5ei9tSDNThEpSUKkOkE29AiPlDDX9HhCj5CBtzmHHqaSHLp8wRKp0teESlt02sYISTKu6UEctb6mhzpe6/1//agKq3f7vtSZMa43fjqyh2qVLjptp4Uk495QcVlLLb7lzkIZK9wfk2u6nNjU/O5dzvH8bX6z7Uu8+2l1QLOJw3Px4iMD3H+P9PTO3Og9evfpvvviWQV90P/ujuHydj8uXb/XN8pv7eC1x/JReF+2TOj8Pt2rXyyu6WHTltmgaEg2Xp2aLxO6TKdtmCXSNT26Tyki1zqoB+lxrTReiPT0LjdEDr0tpQgBqK8vdTYlI0Uf/sSbGzYHbtqcQY80bVRPLHjoXg5dbq/12Pmd3q8Fbyt2ACJ/nh5ubF/XfoMJv98ftNk7vxyB3pl3qQBdtAPCzTbiS5f2JUylywERz9H7nspLmL8p8LX40icGY9zALD56lwNQiU2k0KWpUCNuTZdScnzpNC89kr1c34xMswHj87NgTtV7XUkTKCYv5dOlZGvrO70TW9BGlCaDIPyL8i2HYwdmYekTg2XHFK7hy28fxVsHzoXbzGdP4QIh9uAOWlaZTpjTe6xu2aTZsNLTNP8KVU6ppWWj3YVN+85gy/6zkbqS1Z5DlyVTYhlx6InFU1Y2CQOdv7UKMPfWqpwuHunoXc4x4mnD3AMXOWJz6HJUUscmYR6tqiNH9LzwSr+Dtn2mr/6LsXP3x6Ine3w9265Xbzmx/ilNLCComUrvNW3FG6bMPrPjiyZ6R2+sPbnq5J+fmRm9I8j3rBnouROfL+n8rVHhL5XdOgPPg7eAv/stCNxaH3cbCkhP7vy3oL7kC+yxrDu1//mz7y5+NfyW6rfQDPQcy7OPmroP35Jiiuw98uASxW0VaDhuXkXd1589XrOzbLP6CMP3qBnouePnDk5Ky/jc3H1Y+FnIahE/6PVnD8HZUPu96oqyA7JCjbKRZqBLeWZb5pwz5QzoZuh0dxTSjg/0puvn0XCh8npNxXL383ItbNqCXvDsYhCyyNxjGJI7qH2ajz10+81a1FcdlIYLZTU7l8/TAnApBk1BTy+c3dFAha8okG3KzYchLVdFnWILvamuGg3VVlDQepfg7FdbvlIz709rCrpEOKdw7kRK6TvS/1PM2TB27gW90awC/NhAd9jqYbt6Bs31Ne6YCeiUCxVvbFUhAdVcaA66lFlXy9zpBHSDJ8skgwlJBjN0eiMg+F5GFPQGGMw5XjEopW7BpS01vQcg+OZkNN+ogctuQ7IpA0kpvvnxzuYbsDdcgS7ZiJSOfr8CJrrQeK3K7UvqeMTvdq6p/gJEh9/qaKIIl8MGp60OzmbvNDgnBZlxsaJso2q0VHKkSei3wI8moNJ9+9BguepT05HW6zt+0EVcObrT/Tnj3rEgSb51i+qrPoP95hWYcgfAkOYbKDbVnUND9ZdI7pABc4/hPl9OO64ca3mzOKN/AQjxdba6M5/A0Rh8jiehWKUTXYvPffDmBZU4qepGs9A9WeYUzJlKCR4G8F3pJOCfvYagSysQfQxCdjqJfmtt+euauX7fqbdoHrp/0PcUzk6pt7m8sxUz+48boTOm+i3XQWw1h/6ZKbXJHvKjKhDivU0S7Y0/uVS5e1fXIT9cQYjO++NAlLo2Xjz8/uysgeMeFJJT3/Y7bVyrOfye+w3G7KETLgMtc9ikzWVrLLx8dLd33nTtvpVtTW1WtUrVcNauoLdOmP/ArrIuwKHzn9JW1nPi1YpXujLleaXzSlfWc+LVKrDSfS8LtJ5rTyEWSWu05UsrXVH4VnsIDt374kGAL1EcHYuf3YiWrglW6Ry6nI7SrqHLSZDbBCrAoTPYKzh0Dp1BBRhMmVc6h86gAgymzCudQ2dQAQZT5pXOoTOoAIMp80rn0BlUgMGUeaVz6AwqwGDKvNI5dAYVYDBlXukcOoMKMJgyr3QOnUEFGEyZVzqHzqACDKbMK51DZ1ABBlPmlc4g9P8D09uXyYaKjFcAAAAASUVORK5CYII=;" vertex="1" parent="6Q1Rw0imLt8EeE4JK44i-62">
          <mxGeometry x="102.86680327868852" y="12.60909090909091" width="41.38319672131148" height="41.38319672131148" as="geometry" />
        </mxCell>
        <mxCell id="6Q1Rw0imLt8EeE4JK44i-54" value="" style="shape=image;verticalLabelPosition=bottom;labelBackgroundColor=default;verticalAlign=top;aspect=fixed;imageAspect=0;image=data:image/png,iVBORw0KGgoAAAANSUhEUgAAAGoAAACCCAYAAACuNl14AAAAAXNSR0IArs4c6QAAEUBJREFUeF7tXXd0VGXefqbPJJlMGpkJKZMEEDA0DQkEAQusiogEFgVpB3dtiAIeVtHP7/v2fLurlF10QTmCrIiC0lYUkCIuKk0pQkhCMIWQUJOZtClJps/9zvtOJsxNJiEeOCEX3vtPwi3PffN77vO7vzaDCGwThAVEglglWyQYUQJ5CBhRjCiBWEAgy2SKYkQJxAICWSZTFCNKIBYQyDKZohhRArGAQJbJFMWIEogFBLJMpihGlEAsIJBlMkUxogRiAYEskymKESUQCwhkmUxRjCiBWEAgy2SKYkQJxAICWSZTFCNKIBYQyDKZohhRN2YBjuPGbj9r/JdcKr6JDxOB4gA6zkh+ki3wd/+a/bf0n+M/j/z0XR+plMqkEpEoI0ETdWN/aceuvolG6NgNO3IWIemznMpNSw9fCCutsXXkkk49Z0iCBi9kdkdKhLI2Sx8R3Rk373JEdXWSMhLUmJ2ZgNXHr2LhyETDY7276e44ooRE0rHLZmyb2u/OI0oIJL2YEY+PTlSAkES2O44ooZC05mQFjl70kXTHEcVx3GOf5VRu7qqBA3knESW1JOmOIkrIJN0xRHV1ktLj1XgpM7iS7hjXdzuQdNsripJ0unLz0kNdM5klSpqdGY9/tQgcguVKt23UJxSS1p6swE8B0V1bCe1tSRTHcXN3FFUvXnP8quqS2d4ZyfxvukeaNgyP3RWFjpJ027q+s4Z6BycSSexuz28yYGedHK2Uit76T5n4ywJjh295Wypqd1FV5cQvzmg7bIVOPvEfj/Z0rDx2RVFW1/EiMCOqk0kit2NENRmdKerGnr5Oa3MwohhRN2aBpquZ62Ou76Y8SMz1MUXxHyT2jroxYTFFMUUxRd2YhvhXM0UxRTFFMUXdTAswRXVcUWKbCRJ7PdRiF7opRFDLRHRw2OrkYHRwaIACHmUYvMrwNinyYTRALXZSjHC5CF4OsLg4GO0cGimGGl6lOigGS3jbSHhFbieklkqM0boxtEccRvfXI1ITDqVSCalEQq9yud1w2O0w1Jiw/0w5jpZX4z/VMrjDdeDEUojdDkgslRir82BIjzj8rp8emiAYdpsNlTVmfF9Qjp/LavA9wYjQgRP57sOKsgHPbss8Kqq2GH8bczdmPpwFSRMx5PTioiLk5+dDJpPh3vR0JCQkNKM4nU6s2nkI/7v/PByxvRBbV4x3xvbH06OHQCwWN59XWFiI/Lw8qFQqpKcPRlz3uOZjdrsdK7cfwl8OXoCzW09GVEv/EkiU2GXHfL0Vbz//JO+0b3buxPxX5vL2bdu+HQMGDuDte+m99fjUoMEbfbz4n1nZvGNbt2zBm68vbN4nlUqx57t9SElJ4Z33xyXrsLEhEZzYpyrm+oK6Pg596ovw1cuPIjk5mWdAk8mEX8+ehUwmx8BBA6myAreS4mI8/uGPuKTugf62EmyZ8yj0LTDqauvw669nqRsdOGgQT7EEq6iwCGNWHUBFxF1MUe0pihxTXsnD871leOBuPRITExEdEwO1Wu17R0ml4DgOHo8HNpsNFosFNdU1uHChHHtzy7HhsgzOuL5QXT6N2XeHYETfROoi28JobGz0YdTUoLysHLtzy7CpQgWnrjcjql3X57bjOZ0Z/3x5MjVgldGI2to6nDz5Cw4eOIDQ0DBwXg4NjfXInjABPXv2RGRUFLRaLUJDQzFr8SfYaorBSykO/P2FSRTDaDCgrs6E48eO4ciRw80YNnsjnnzqKfowEAydVgeFUoHpi9bia1dPQOTL+ZnrC+L6RF4vBjuLsXV+NrQ6/seLzhYUID8vHzK5L5ho6RovX76M7OW7cVaViix3KTbOn4DY2Fjec3EmP59ikGBicMZgJCQm8o5fvHAB497/FsVhzPW1FBRaRn3KK/mYkeTGhPsGQZ+sR0yT6xM1PeF+AK/XC6vFgurqapSVleGLAznYVq2BQ9cbisu5eCaFQ/Z9g5Ck1yM6Opq6z2AYFrOZYpw/fx6fHziN7XWRcGgZUe0SJXI7MFljwCevzYShshIGgxF1dbUoLS3Fmbx8hGvCacLbUF9Pw+v4hHhEEden0yEiIgJPv/MJ9tjjMSPWjFWvTkVlRQUMRiPqamtxrqQEBQUF0Gg0FMPW2IghQ4YiVhuLyMhI6OLiEBYWhsmLPsM+ESOqfaK8bjzoLcGmhdOpAvwbCSC+3bMXp3NPQyaRYUjWEAwfMYKHVVtbi0n/2Iqj4hQ8LC3H569No++tQIzdu3YhLzcPSoUSQ4dlIWtYFg+jqqoKE9/9Cr8oGFHXdX1SixHDQk2YM2oAhvRJRky3bq3CaD+Iy+Wibutg/jmsOliIE/ZIeMJiILUYMDLMgpdGD0RGb5/rk0ilre5NdpBkmWD8mHsOqw8V4aQrGp7Qax9oZ8FE0DzKt1PsskFsMyNVbkeywoWESBX00WqEKny5U73dhfJqC8gIdLldhguuEHhVGnhlimYyRM5GSOwW9JTboFe6kRChQhIPw4myaqsPwyHDRT+G9BoGi/oCnu1grXix2w5xoxmJMhuSFW5olUBMmBwapRwcOJjtLlRbHahwiFBmk6GCC4FHqQEnlTcj+zGSZD6idBRDgXCFrBnDaHXA4BDhvE2KCi4MXlU4OMk1DEZUO0RJrVUYGmLCcyP6Yni/VBr1yeV84/kvJ/U54rb2nz6Hj38qwakmt0XcZ1aoCS/cn4ZhaanU9bWFQRLnmupqfHf6HNb8dA557hh4QiObV8hcX9A8yoORJJj40xQaxfm32pparPrwQxw7epRW0O9/8EHMnT+vVSDw+3e34RdpCkbhPD5/bSrCw6+1P0gU+dHq1Thx/AQtP43+3WjMnjOHh0GS4+x3tyNHxYKJdoMJ0p6YGlmFNQum884j4fX7K1bg559+pkQ9NHoUXl2wgHeO2+3GtEXrsKuxO2bpzPhg3tOtSFj5wUpKNiHq4UcewSvz+IVeh8OBKYvWYS8IUawywTNgsIT35f5hmPPkGJrjBLYpgoVthKDKykos27gLa89zcGr7QHkpF/PTI/DixEcQq9W2SnRb4lCMigos3vAN1l+UwMkS3tam5hHFeXGvowQrnhwMr8eLysoKmtCq1eGQy2WQKxS0KOtyuuBwOmC1WGE2m6DV6qgAntt0CkUhPZDhLMHypzJpg9FgMPAwZHI5H8Nsgdlihk6nA8cBszbnoDSsF3tHtaSK149y2/FinBnL5kymp5Enva6ujlYU1qz+CEWFhZCIxRh0z73UbenidLSq4G8wPrv0U2ysjcIrqU4sfv73FIPkWqRFkpOTg3Ufr0VxYSGtwqdnZFD3GRkVSTGIcslDMGPRWnzpSAFEvoYjCyaCBBNkl+JyHv58fxKezR7Fq04Ec3v+faa6Oizfug/vnaqFQ9cXoVfz8OcHUvCH8Q/xqhPtYZBe1bLNe/FBngUOLWtztBtMkIM9Lb9ixdi7aCWBqIG4PlKDIxVvso/2o9xu2o+yWq0gpSOVUgWLzYY5u8tQGdELva2FeO/xPlQlbpcbUdHEffp6WnwMO6xWXz8qJCQU+Zdr8fZRA2oimetrP+pz2bAgpRF/edbntggRRC1HjhzB0kWLEBISQguq5P3113feRp++fanb8tf05i7fgI+vqvFWGvBfM8dTDNKTMptM+OGHH/DPZe8iJERFp5CkMhkWL1lMq+uBGM//fR02WJPANc1aMNfXhuvT1hVjyRMDMHnU0FakXr16lb5fWvaZSMf3k71H8ObuItR364UEcwk+m56JrPSBrTCuXLkChUJBE+nAjbwPV39zEG/tK6UDMv6NEdUGUXTUy1yBcXFeDO+TgFFpyVCHq6FUKJoLqx63Bza7DSaTGd+dKceR4grsNUrh1uhoCYgMyUjMlRjfncN9feLxUJoe6vBwHgYhhlQ26kxm7Msrx5FzFdhXJYNbE0dHzhhRLZ7xNj92w3GQWSogsVYjWuxAQqgYMSFS6vqMDS5caeRQy6ngVcfAFd7Gl01yXsgsBkisVYiROBFPMFQSeDkOxkY3rjZwqIUKnvBYuNX8bjAj6jpEiTgPbVNkaVxI66bEqH5JuCsuujkQIJf7ggk7Ci4b8X3BRRTUuHHCqoA7nBhbBJHXhzEsyoW0aCUd4uypi+JhuF0u2O0OnLlEMC4gv8aDU/UEg/9NCsz1teH65MYSvDUyEbPH3scLz81mc9O4mAwDBvLHxUjAsezrQ1h+sgaumBSojCX47weS8cLYYbzwnJSiyBAmif4IRuCAJwnPl247gJW5Jriir42qMaKCEEVaE4EJr198O3fswKtz+UXYYAOYf1z6KTa1SHj9GP/esgVvBAxgkjB9z75vkZqa2qxxEvqTKaRtLOFtnXLy3lFeD9Kd57B13hOIi7s2bkyuIsOReXm5UMjluCc9nY55BW6XLl7EE+/vRZGqBzJdJdg8r/UkExngJJNICqUSGZmZre5BZvvGfbAP59Ssen7dhJdOIek9yB7aH8kpyYiKjqbtipbFWRKS+yeIyBTSlsN5+HeVGg4dKcrm45lUD8YNHYik5KTmSabgGBZUVRnpFNKmQ/n42hQBRywjqv2El7Y5jFizYAaMRiMMlWR4shYlxSXIzc2FJkIDUjltsDYgc+gQJCQm0GTVP4XUss1B+kv+SSaiSPIhA4rh9dJAYmhWFrQ6bfMkE51CemcdvqVTSKzNwSMr0PWRaC1Y45Bc8P3+/cg7nQupTIrBGRnUyIEb6fROXPZlc+Pwi9entaoVfrdvH/LJFJJSSYkmOIEbIXbCe9txSskU1QHXdwZT4how49GRSG4awLxeK760tAzr9h7GV6YoWlAlrm9avA0zHrsfSfqkdlvxJOklY2Klpeexds8R7LB0g0PLKhPtEiXyOPG4/BJWzZlAe01Go4EWXclELOkr+f9/E4lUgviEBFoKioqKhk6npQHCrOXb8KM3CdnhBqx8MRumOhPFIK0SUu8jhPgwRJDIJNDr9bQk5R/AJA/EtBVf4bCUVc+vS9Q4+SWsXziDN4xCnvoN69cj5+QpSk5GZgYmTppEf/dvDQ0NeGrxevzoScaE8Eqs+9N0SkLg8c/Xb8DpnByoQlTUdT4xfjwPgxRwJy3diEOMqOuE5wBkpisYE23Dwuxh6JEUT0eQ29tIsltw/hKW7PgZP1gjaGVBVncFj8c68OaEYdAndOcNuQTDIonwmdKLWLLjOA40EIxr5SSW8LZRmSC7xXYrQp1m9At1IlktQao2CindNFCrfAOY5kYHyqosKK2sRXmDF6etcrhVEfAqwpp5ENstCHNakBbqQLJaSjFSYzUIU17DOE8wKmpQ3gjkWqRwh0TBq7g2Bk3AfitRvaJD8H+jkismpmm7t/uE3aSDXeYLQch7S+RyQORx0RoeiZrJxzY5iQycVEl/Xm8jH+AmH0AIiiFT8arlLbF+C1E9olV4fYS+fuYg3WSRSLT7euu6Gce7DFE344+5EYyOEnUrSPKFRZ203Q7fLkZJGq6vn3lP5ynJTw8jqskS11NUAElTRCLRrk56vptvw4jqAFG3miTm+gJk0ZaiugJJjKjrEJUSqcIbI+k76Za4u0D3ylxfG66PkPTaiKT6Z+6Nu+UkMUW1oagAkqaKRKKdnR04BLsfU1QLRZF/Nimpy5DEFNVCUTsKaxRTBsQSd9elSGJEBRC1ZkJvZ4hE7J7YT0veSV3C3d2SYGJLnuFKmKLpO9e6gtNvsQa1QqIZro+cJxKJPuqCy+u8ElJX/OOFtKZOCyaEZJSuuFZGVFdkJciaGFGMKIFYQCDLZIpiRAnEAgJZJlMUI0ogFhDIMpmiGFECsYBAlskUxYgSiAUEskymKEaUQCwgkGUyRTGiBGIBgSyTKYoRJRALCGSZTFGMKIFYQCDLZIpiRAnEAgJZJlMUI0ogFhDIMpmiBELU/wP4PLEZ50HOoQAAAABJRU5ErkJggg==;" vertex="1" parent="6Q1Rw0imLt8EeE4JK44i-62">
          <mxGeometry x="53.206967213114744" y="83.61818181818181" width="39.01844262295082" height="47.89218237704918" as="geometry" />
        </mxCell>
        <mxCell id="6Q1Rw0imLt8EeE4JK44i-55" style="edgeStyle=none;rounded=0;orthogonalLoop=1;jettySize=auto;html=1;fontFamily=Times New Roman;endArrow=classic;endFill=1;strokeWidth=1;" edge="1" parent="6Q1Rw0imLt8EeE4JK44i-62" source="6Q1Rw0imLt8EeE4JK44i-51" target="6Q1Rw0imLt8EeE4JK44i-54">
          <mxGeometry relative="1" as="geometry" />
        </mxCell>
        <mxCell id="6Q1Rw0imLt8EeE4JK44i-56" style="edgeStyle=none;rounded=0;orthogonalLoop=1;jettySize=auto;html=1;fontFamily=Times New Roman;endArrow=classic;endFill=1;" edge="1" parent="6Q1Rw0imLt8EeE4JK44i-62" source="6Q1Rw0imLt8EeE4JK44i-52" target="6Q1Rw0imLt8EeE4JK44i-54">
          <mxGeometry relative="1" as="geometry" />
        </mxCell>
        <mxCell id="6Q1Rw0imLt8EeE4JK44i-57" style="edgeStyle=none;rounded=0;orthogonalLoop=1;jettySize=auto;html=1;fontFamily=Times New Roman;endArrow=classic;endFill=1;" edge="1" parent="6Q1Rw0imLt8EeE4JK44i-62" source="6Q1Rw0imLt8EeE4JK44i-53" target="6Q1Rw0imLt8EeE4JK44i-54">
          <mxGeometry relative="1" as="geometry" />
        </mxCell>
        <mxCell id="6Q1Rw0imLt8EeE4JK44i-58" value="&lt;font style=&quot;font-size: 8px;&quot; face=&quot;宋体&quot;&gt;风能&lt;/font&gt;" style="text;html=1;strokeColor=none;fillColor=none;align=center;verticalAlign=middle;whiteSpace=wrap;rounded=0;fontFamily=Times New Roman;" vertex="1" parent="6Q1Rw0imLt8EeE4JK44i-62">
          <mxGeometry x="2.9559426229508197" width="35.471311475409834" height="19.90909090909091" as="geometry" />
        </mxCell>
        <mxCell id="6Q1Rw0imLt8EeE4JK44i-59" value="&lt;font face=&quot;宋体&quot;&gt;化工&lt;/font&gt;" style="text;html=1;strokeColor=none;fillColor=none;align=center;verticalAlign=middle;whiteSpace=wrap;rounded=0;fontFamily=Times New Roman;" vertex="1" parent="6Q1Rw0imLt8EeE4JK44i-62">
          <mxGeometry x="54.98053278688524" width="35.471311475409834" height="19.90909090909091" as="geometry" />
        </mxCell>
        <mxCell id="6Q1Rw0imLt8EeE4JK44i-60" value="&lt;font face=&quot;宋体&quot;&gt;其他&lt;span style=&quot;color: rgba(0, 0, 0, 0); font-size: 0px; text-align: start;&quot;&gt;%3CmxGraphModel%3E%3Croot%3E%3CmxCell%20id%3D%220%22%2F%3E%3CmxCell%20id%3D%221%22%20parent%3D%220%22%2F%3E%3CmxCell%20id%3D%222%22%20value%3D%22%26lt%3Bfont%20face%3D%26quot%3B%E5%AE%8B%E4%BD%93%26quot%3B%26gt%3B%26lt%3Bb%26gt%3B%E9%A3%8E%E8%83%BD%26lt%3B%2Fb%26gt%3B%26lt%3B%2Ffont%26gt%3B%22%20style%3D%22text%3Bhtml%3D1%3BstrokeColor%3Dnone%3BfillColor%3Dnone%3Balign%3Dcenter%3BverticalAlign%3Dmiddle%3BwhiteSpace%3Dwrap%3Brounded%3D0%3BfontFamily%3DTimes%20New%20Roman%3B%22%20vertex%3D%221%22%20parent%3D%221%22%3E%3CmxGeometry%20x%3D%2246%22%20y%3D%2225%22%20width%3D%2260%22%20height%3D%2230%22%20as%3D%22geometry%22%2F%3E%3C%2FmxCell%3E%3C%2Froot%3E%3C%2FmxGraphModel%3E&lt;/span&gt;&lt;/font&gt;" style="text;html=1;strokeColor=none;fillColor=none;align=center;verticalAlign=middle;whiteSpace=wrap;rounded=0;fontFamily=Times New Roman;" vertex="1" parent="6Q1Rw0imLt8EeE4JK44i-62">
          <mxGeometry x="105.82274590163935" width="35.471311475409834" height="19.90909090909091" as="geometry" />
        </mxCell>
        <mxCell id="6Q1Rw0imLt8EeE4JK44i-61" value="&lt;font face=&quot;宋体&quot;&gt;数据存储&lt;/font&gt;" style="text;html=1;strokeColor=none;fillColor=none;align=center;verticalAlign=middle;whiteSpace=wrap;rounded=0;fontFamily=Times New Roman;" vertex="1" parent="6Q1Rw0imLt8EeE4JK44i-62">
          <mxGeometry x="45.43" y="126.09" width="54.58" height="15.91" as="geometry" />
        </mxCell>
      </root>
    </mxGraphModel>
  </diagram>
</mxfile>
